{"glyphs":{"0":{"ha":639,"x_min":42,"x_max":596,"o":"m 332 967 q 356 965 343 971 q 495 823 439 919 q 574 615 551 726 q 589 392 596 504 q 500 103 578 211 q 260 7 407 -22 q 88 190 142 32 q 57 506 42 324 q 132 814 71 685 q 310 974 204 963 q 332 967 322 975 m 315 918 q 182 789 240 911 q 113 501 126 671 q 139 208 99 329 q 271 63 182 81 q 454 136 383 39 q 533 394 524 231 q 488 709 543 560 q 328 915 433 858 q 322 919 325 918 q 315 918 319 918 z "},"1":{"ha":240,"x_min":119,"x_max":175,"o":"m 175 944 l 175 24 q 167 4 175 13 q 147 -4 158 -4 q 128 4 136 -4 q 119 24 119 13 l 119 944 q 128 964 119 956 q 147 972 136 972 q 167 964 158 972 q 175 944 175 956 z "},"2":{"ha":611,"x_min":79,"x_max":557,"o":"m 122 715 q 191 875 136 806 q 317 965 246 944 q 453 946 394 990 q 532 789 515 899 q 512 634 543 707 q 418 485 481 561 q 349 405 393 454 q 273 317 304 356 q 221 243 242 279 q 168 135 190 188 q 144 72 150 97 q 140 57 142 63 q 151 56 144 56 q 222 54 176 54 q 274 55 244 54 q 322 56 303 56 l 349 56 q 528 54 467 53 q 549 47 540 54 q 557 27 557 39 q 549 7 557 15 q 531 -1 542 -1 q 346 0 467 -3 l 322 0 q 274 -1 303 0 q 222 -1 244 -1 q 149 0 175 -1 q 122 3 132 1 q 110 6 115 4 q 90 19 97 10 q 90 86 79 43 q 117 157 99 114 q 174 271 142 214 q 228 351 194 308 q 308 444 263 393 l 376 519 q 460 653 433 590 q 476 781 486 715 q 419 901 464 868 q 333 913 383 928 q 234 840 279 896 q 178 707 189 783 q 167 689 176 696 q 146 683 157 682 q 128 694 135 685 q 122 715 121 704 z "},"3":{"ha":610,"x_min":17,"x_max":558,"o":"m 132 871 q 230 936 169 914 q 346 953 290 958 q 447 906 411 947 q 479 779 489 858 q 365 629 469 694 q 489 542 443 604 q 546 397 535 479 q 533 227 558 313 q 450 85 507 142 q 338 14 401 36 q 210 -1 274 -8 q 92 48 143 7 q 21 160 42 89 q 22 181 17 171 q 39 195 28 192 q 60 193 50 199 q 74 176 71 188 q 128 91 90 122 q 217 54 165 60 q 319 67 267 49 q 411 124 372 85 q 479 244 457 171 q 492 390 501 317 q 438 517 481 465 q 322 582 394 569 q 235 568 296 588 q 194 556 215 561 q 173 557 183 551 q 160 574 163 563 q 162 594 157 585 q 176 608 167 604 q 185 611 181 611 l 225 624 q 333 675 288 646 q 424 785 417 726 q 406 868 431 840 q 340 897 383 893 q 249 884 297 901 q 174 835 201 867 q 154 825 165 825 q 134 833 143 825 q 125 851 125 840 q 132 871 125 863 z "},"4":{"ha":676,"x_min":122,"x_max":613,"o":"m 188 944 q 181 649 188 943 q 179 472 178 532 q 181 415 179 435 q 182 413 182 414 q 203 406 183 413 q 240 399 224 400 q 363 394 289 394 q 418 396 388 394 l 418 944 q 426 964 418 956 q 446 972 435 972 q 465 964 457 972 q 474 944 474 956 l 474 397 q 585 400 572 400 q 604 392 596 400 q 613 372 613 383 q 604 353 613 361 q 585 344 596 344 q 474 342 572 344 l 474 24 q 465 4 474 13 q 446 -4 457 -4 q 426 4 435 -4 q 418 24 418 13 l 418 340 q 363 339 388 339 q 236 343 285 339 q 146 364 169 349 q 132 379 138 369 q 129 389 131 383 q 126 410 128 397 q 124 472 124 432 q 125 650 122 533 q 132 939 133 929 q 138 959 131 950 q 157 969 146 968 q 177 963 168 971 q 188 944 186 956 z "},"5":{"ha":603,"x_min":24,"x_max":546,"o":"m 410 911 q 153 900 307 919 q 160 719 160 825 q 158 632 160 689 q 322 682 225 693 q 471 598 410 672 q 539 390 532 524 q 483 151 546 254 q 326 14 421 49 q 143 33 226 -22 q 25 238 54 93 q 30 258 24 249 q 47 270 36 268 q 68 266 58 272 q 81 249 78 260 q 174 79 104 126 q 307 67 233 39 q 436 181 383 94 q 483 388 489 268 q 429 561 478 503 q 315 626 381 619 q 209 601 254 635 q 161 515 164 568 q 152 497 161 504 q 132 489 143 489 q 122 492 128 489 q 101 518 101 496 q 103 622 101 554 q 104 719 104 689 q 97 910 104 832 q 93 919 94 914 q 99 940 92 931 q 117 951 106 950 q 415 967 299 976 q 434 957 426 965 q 440 937 442 949 q 431 917 439 925 q 410 911 422 910 z "},"6":{"ha":588,"x_min":58,"x_max":556,"o":"m 174 138 q 265 63 208 82 q 396 94 331 40 q 459 166 435 125 q 492 247 483 207 q 497 326 500 288 q 479 394 493 364 q 403 457 451 454 q 278 378 344 461 q 213 275 243 336 q 174 138 178 206 m 390 911 q 242 750 311 874 q 143 476 172 626 q 138 240 118 343 q 163 300 147 269 q 233 414 196 367 q 407 513 319 518 q 529 418 488 507 q 551 332 547 379 q 546 235 556 285 q 507 138 536 186 q 432 50 478 89 q 249 10 342 -22 q 90 196 129 50 q 89 486 58 319 q 195 781 119 644 q 368 961 271 917 q 389 963 378 967 q 405 948 400 958 q 406 926 410 938 q 390 911 401 915 z "},"7":{"ha":590,"x_min":81,"x_max":529,"o":"m 108 967 l 332 967 l 447 967 l 483 967 l 494 967 l 497 967 l 499 967 l 501 967 q 504 965 503 967 q 524 947 519 963 q 518 908 529 931 q 501 881 513 897 l 489 865 l 478 850 q 472 842 474 843 q 353 618 419 768 q 272 349 297 490 q 232 17 246 207 q 222 -2 231 6 q 202 -8 214 -10 q 183 1 190 -7 q 176 22 175 10 q 217 361 192 215 q 303 640 243 504 q 428 875 374 799 q 433 882 428 876 q 444 896 438 888 q 454 911 450 904 l 447 911 l 332 911 l 108 911 q 89 919 97 911 q 81 939 81 928 q 89 958 81 950 q 108 967 97 967 z "},"8":{"ha":586,"x_min":97,"x_max":539,"o":"m 488 907 q 504 901 497 907 q 515 883 514 894 q 510 863 517 871 l 401 724 q 326 619 354 663 q 515 408 475 507 q 535 269 539 347 q 501 126 532 192 q 404 21 467 56 q 256 13 340 -14 q 129 129 160 42 q 125 303 104 200 q 251 607 154 447 q 175 665 196 647 q 113 747 121 710 q 141 874 97 819 q 254 954 185 929 q 386 968 322 978 q 488 907 457 957 m 296 574 q 179 292 207 424 q 181 147 161 204 q 272 65 203 86 q 451 151 393 29 q 481 272 478 206 q 463 389 483 339 q 296 574 431 471 m 442 876 q 376 914 424 907 q 274 901 328 921 q 187 844 217 882 q 168 758 157 806 q 211 707 171 740 l 282 653 q 358 758 313 699 l 446 871 q 442 876 443 874 z "},"9":{"ha":606,"x_min":58,"x_max":558,"o":"m 432 843 q 336 914 394 897 q 207 875 269 932 q 136 773 158 832 q 117 662 114 714 q 142 568 121 610 q 221 510 174 510 q 343 597 281 508 q 376 646 368 632 q 401 703 383 660 q 432 843 431 774 m 258 53 q 399 226 336 97 q 482 506 461 354 q 474 744 499 642 q 451 681 465 715 q 425 619 432 635 q 388 564 415 603 q 221 454 308 453 q 93 543 139 454 q 62 658 65 594 q 85 793 58 722 q 171 917 113 864 q 350 967 256 993 q 519 789 472 933 q 536 499 558 668 q 447 198 515 339 q 286 6 379 57 q 265 2 275 -1 q 248 16 254 6 q 245 37 242 26 q 258 53 249 47 z "}," ":{"ha":417,"x_min":0,"x_max":0,"o":""},"!":{"ha":149,"x_min":24,"x_max":83,"o":"m 83 938 l 83 181 q 75 161 83 169 q 56 153 67 153 q 36 161 44 153 q 28 181 28 169 l 28 938 q 36 957 28 949 q 56 965 44 965 q 75 957 67 965 q 83 938 83 949 m 71 63 q 75 58 71 63 q 79 43 79 54 q 71 24 79 32 q 51 15 63 15 q 32 24 40 15 q 24 43 24 32 q 32 63 24 54 q 51 71 40 71 q 71 63 63 71 z "},"\"":{"ha":311,"x_min":65,"x_max":247,"o":"m 122 922 q 124 732 131 804 q 113 713 122 721 q 93 707 104 706 q 74 717 82 708 q 68 738 67 726 q 67 919 75 804 q 73 939 65 931 q 92 949 81 947 q 113 942 104 950 q 122 922 121 935 m 243 904 q 247 721 247 844 q 239 701 247 710 q 219 693 231 693 q 200 701 208 693 q 192 721 192 710 q 188 901 192 842 q 194 921 186 913 q 213 931 201 929 q 233 924 225 932 q 243 904 242 917 z "},"#":{"ha":747,"x_min":100,"x_max":682,"o":"m 282 353 q 381 354 317 353 q 471 357 446 356 l 471 576 q 381 573 446 575 q 282 571 317 571 l 282 353 m 226 296 l 128 296 q 108 304 117 296 q 100 324 100 313 q 108 343 100 335 q 128 351 117 351 l 226 351 l 226 569 q 128 568 174 568 q 108 576 117 568 q 100 596 100 585 q 108 615 100 607 q 128 624 117 624 q 226 625 174 624 l 226 904 q 235 924 226 915 q 254 932 243 932 q 274 924 265 932 q 282 904 282 915 l 282 626 q 381 628 317 626 q 471 632 446 631 l 471 906 q 479 925 471 917 q 499 933 488 933 q 518 925 510 933 q 526 906 526 917 l 526 633 q 654 635 597 635 q 674 626 665 635 q 682 607 682 618 q 674 588 682 596 q 654 579 665 579 q 526 578 597 579 l 526 357 q 653 358 596 358 q 672 350 664 358 q 681 331 681 342 q 672 311 681 319 q 653 303 664 303 q 526 301 596 303 l 526 75 q 518 56 526 64 q 499 47 510 47 q 479 56 488 47 q 471 75 471 64 l 471 301 q 381 299 446 300 q 282 297 317 297 l 282 85 q 274 65 282 74 q 254 57 265 57 q 235 65 243 57 q 226 85 226 74 l 226 296 z "},"$":{"ha":546,"x_min":44,"x_max":486,"o":"m 411 722 q 391 854 425 807 q 299 910 357 901 q 192 889 240 918 q 133 804 143 860 q 179 668 122 744 q 210 631 192 651 l 243 596 l 282 556 q 319 517 310 528 q 381 453 357 481 q 433 383 406 425 q 473 305 461 342 q 485 221 485 268 q 468 128 486 174 q 401 44 447 75 q 297 4 354 13 q 188 16 242 -3 q 101 78 135 35 q 49 308 44 151 q 57 328 49 321 q 77 336 65 336 q 97 328 89 336 q 104 308 104 319 q 146 111 101 169 q 208 68 169 82 q 291 60 247 54 q 368 88 335 65 q 416 147 401 111 q 430 219 431 183 q 419 286 429 256 q 387 352 410 317 q 340 414 364 388 l 281 478 l 243 515 l 201 557 l 168 594 q 135 635 149 617 q 78 815 63 731 q 161 936 93 896 q 306 965 229 976 q 436 888 388 954 q 467 714 485 821 q 455 696 464 703 q 435 691 446 689 q 417 702 424 693 q 411 722 410 711 m 331 -44 q 329 -158 335 -94 q 319 -177 328 -169 q 299 -183 310 -185 q 280 -173 288 -182 q 274 -153 272 -164 q 275 -50 279 -94 q 281 -29 274 -37 q 301 -19 289 -21 q 321 -26 313 -18 q 331 -44 329 -33 m 307 1113 q 308 1017 308 1075 q 300 997 308 1006 q 281 989 292 989 q 261 997 269 989 q 253 1017 253 1006 q 251 1110 253 1075 q 259 1131 251 1122 q 278 1139 267 1139 q 299 1131 290 1139 q 307 1113 307 1124 z "},"%":{"ha":924,"x_min":185,"x_max":861,"o":"m 186 90 q 206 149 193 118 q 228 197 219 181 q 258 253 236 214 q 285 297 281 292 q 532 684 404 511 q 814 992 660 857 q 834 999 822 1000 q 853 989 846 997 q 860 969 861 981 q 850 950 858 957 q 576 650 701 819 q 332 269 451 481 q 306 224 328 261 q 277 172 285 186 q 258 130 269 157 q 242 79 246 103 q 229 62 239 68 q 208 58 219 56 q 191 69 197 60 q 186 90 185 79 m 569 172 q 574 168 569 172 q 578 153 578 164 q 569 133 578 142 q 550 125 561 125 q 531 133 539 125 q 522 153 522 142 q 531 172 522 164 q 550 181 539 181 q 569 172 561 181 m 331 829 q 335 825 331 829 q 339 810 339 821 q 331 790 339 799 q 311 782 322 782 q 292 790 300 782 q 283 810 283 799 q 292 829 283 821 q 311 838 300 838 q 331 829 322 838 z "},"&":{"ha":414,"x_min":28,"x_max":356,"o":"m 296 669 q 263 704 285 700 q 211 692 240 708 q 156 644 179 675 q 129 588 132 614 q 133 560 126 569 q 154 546 139 551 q 226 538 178 538 q 271 539 250 542 q 275 538 272 539 q 278 536 276 538 q 290 529 285 535 q 296 508 297 519 q 288 490 294 497 q 276 483 282 486 l 271 483 q 260 482 268 482 l 247 482 l 238 482 l 232 482 q 121 411 169 468 q 89 346 90 376 q 114 297 86 317 q 211 306 151 272 q 306 389 257 333 q 324 399 313 397 q 344 392 336 400 q 354 373 353 385 q 347 353 356 361 q 239 258 292 289 q 83 253 150 206 q 33 350 28 290 q 79 447 38 399 q 132 494 101 474 q 88 529 103 507 q 74 593 69 556 q 111 677 79 636 q 185 740 143 718 q 274 758 232 767 q 349 692 325 747 q 348 670 353 681 q 333 655 343 660 q 312 655 322 650 q 296 669 301 660 m 210 149 q 215 47 214 90 q 208 26 215 35 q 188 18 200 18 q 168 26 176 18 q 160 44 160 33 q 154 146 158 88 q 160 165 153 157 q 180 175 168 174 q 200 169 192 176 q 210 149 208 161 m 232 951 q 243 831 238 883 q 237 810 244 819 q 218 800 229 801 q 198 806 207 799 q 188 825 189 814 q 176 946 182 878 q 183 967 175 958 q 202 976 190 975 q 222 970 214 978 q 232 951 231 963 z "},"'":{"ha":164,"x_min":43,"x_max":99,"o":"m 99 1017 l 99 817 q 90 797 99 806 q 71 789 82 789 q 51 797 60 789 q 43 817 43 806 l 43 1017 q 51 1036 43 1028 q 71 1044 60 1044 q 90 1036 82 1044 q 99 1017 99 1028 z "},"(":{"ha":256,"x_min":38,"x_max":217,"o":"m 211 1044 q 117 693 139 875 q 119 335 94 511 q 213 -19 143 164 q 212 -41 217 -31 q 196 -56 207 -51 q 174 -55 185 -60 q 160 -39 164 -50 q 64 328 90 146 q 61 700 38 510 q 161 1067 85 890 q 176 1082 165 1078 q 197 1081 186 1086 q 213 1066 208 1076 q 211 1044 217 1056 z "},")":{"ha":256,"x_min":15,"x_max":208,"o":"m 21 -15 q 140 513 136 233 q 43 1049 144 793 q 44 1070 39 1060 q 60 1085 49 1081 q 81 1084 71 1089 q 96 1068 92 1079 q 186 700 164 888 q 180 324 208 514 q 71 -37 151 135 q 56 -53 67 -49 q 34 -52 44 -57 q 19 -36 24 -47 q 21 -15 15 -25 z "},"*":{"ha":574,"x_min":104,"x_max":514,"o":"m 325 921 q 333 754 333 849 q 457 846 431 828 q 478 849 467 851 q 495 838 489 847 q 499 817 501 828 q 488 799 497 806 q 361 704 481 794 q 496 631 426 665 q 510 614 506 625 q 508 593 514 603 q 492 579 503 583 q 471 581 481 575 q 332 658 399 617 q 328 500 328 535 q 319 481 328 489 q 300 472 311 472 q 281 481 289 472 q 272 500 272 489 q 275 644 272 544 q 143 582 204 600 q 122 583 132 578 q 108 600 111 589 q 110 622 104 611 q 126 635 115 632 q 263 703 190 654 q 121 813 185 756 q 112 832 113 821 q 119 851 111 843 q 138 860 126 860 q 157 854 149 861 q 278 760 213 806 q 269 913 278 846 q 275 934 268 925 q 294 944 282 943 q 315 939 306 946 q 325 921 324 932 z "},"+":{"ha":431,"x_min":100,"x_max":367,"o":"m 203 500 q 129 493 163 494 q 110 501 118 493 q 101 519 101 508 q 108 539 100 531 q 126 549 115 547 q 200 556 160 550 q 197 681 197 603 q 206 700 197 692 q 225 708 214 708 q 244 700 236 708 q 253 681 253 692 q 254 563 253 607 q 333 574 331 572 q 355 568 346 575 q 365 549 364 561 q 360 528 367 538 q 342 518 353 519 l 258 507 q 275 400 264 449 q 272 378 278 389 q 256 366 267 368 q 234 369 244 364 q 222 386 224 375 q 203 500 210 438 z "},",":{"ha":238,"x_min":13,"x_max":176,"o":"m 172 63 q 60 -104 146 -33 q 39 -110 50 -111 q 20 -99 28 -108 q 14 -79 13 -90 q 24 -60 15 -68 q 119 76 97 -1 q 133 94 122 88 q 153 97 143 100 q 170 83 164 93 q 172 63 176 72 z "},"-":{"ha":385,"x_min":74,"x_max":321,"o":"m 101 463 q 289 469 224 463 q 309 463 300 471 q 319 444 318 456 q 313 424 321 433 q 294 414 306 415 q 101 407 226 407 q 82 415 90 407 q 74 435 74 424 q 82 454 74 446 q 101 463 90 463 z "},".":{"ha":129,"x_min":8,"x_max":64,"o":"m 56 57 q 60 53 56 57 q 64 38 64 49 q 56 18 64 26 q 36 10 47 10 q 17 18 25 10 q 8 38 8 26 q 17 57 8 49 q 36 65 25 65 q 56 57 47 65 z "},"/":{"ha":642,"x_min":25,"x_max":581,"o":"m 575 911 l 421 636 l 238 313 l 78 42 q 61 29 72 32 q 40 32 50 26 q 28 49 31 38 q 31 69 25 60 l 189 342 l 372 664 l 528 939 q 544 951 533 949 q 565 949 556 954 q 578 932 575 943 q 575 911 581 921 z "},":":{"ha":203,"x_min":74,"x_max":138,"o":"m 129 625 q 133 621 129 625 q 138 606 138 617 q 129 586 138 594 q 110 578 121 578 q 90 586 99 578 q 82 606 82 594 q 90 625 82 617 q 110 633 99 633 q 129 625 121 633 m 121 161 q 125 157 121 161 q 129 142 129 153 q 121 122 129 131 q 101 114 113 114 q 82 122 90 114 q 74 142 74 131 q 82 161 74 153 q 101 169 90 169 q 121 161 113 169 z "},";":{"ha":171,"x_min":-60,"x_max":107,"o":"m 72 46 q 53 -66 75 -12 q -14 -154 32 -119 q -34 -160 -22 -161 q -53 -149 -46 -158 q -58 -128 -60 -140 q -47 -110 -57 -117 q 17 43 21 -57 q 24 63 17 54 q 43 72 32 72 q 63 65 54 72 q 72 46 72 57 m 99 593 q 103 589 99 593 q 107 574 107 585 q 99 554 107 563 q 79 546 90 546 q 60 554 68 546 q 51 574 51 563 q 60 593 51 585 q 79 601 68 601 q 99 593 90 601 z "},"<":{"ha":429,"x_min":15,"x_max":372,"o":"m 346 633 q 215 503 300 582 q 86 376 119 411 q 81 372 85 374 q 85 367 83 369 q 114 333 96 353 q 200 247 147 297 q 360 110 303 153 q 371 92 369 103 q 365 71 372 81 q 347 60 358 61 q 326 65 336 58 q 163 207 268 110 q 72 296 108 257 q 42 332 53 317 q 22 365 26 353 q 36 407 15 389 q 44 413 38 408 q 47 415 46 415 q 178 543 81 450 q 304 669 264 626 q 324 679 313 679 q 344 672 335 679 q 353 653 353 664 q 346 633 353 642 z "},"=":{"ha":449,"x_min":74,"x_max":383,"o":"m 108 647 q 231 656 144 649 q 356 663 317 663 q 375 654 367 663 q 383 635 383 646 q 375 615 383 624 q 356 607 367 607 q 235 600 321 607 q 111 592 149 593 q 90 599 99 592 q 82 619 82 607 q 90 639 82 631 q 108 647 97 647 m 100 500 q 219 507 132 501 q 340 513 294 513 q 360 504 351 513 q 368 485 368 496 q 360 465 368 474 q 340 457 351 457 q 222 451 297 457 q 103 444 135 446 q 82 452 90 444 q 74 472 74 460 q 81 492 74 483 q 100 500 89 500 z "},">":{"ha":425,"x_min":14,"x_max":360,"o":"m 307 381 q 304 378 306 381 q 307 381 307 379 m 22 115 q 197 278 40 135 l 279 353 l 297 371 l 297 372 q 269 404 288 385 q 185 493 240 438 q 35 639 74 604 q 25 658 26 646 q 31 678 24 669 q 51 688 39 686 q 71 681 63 689 q 225 532 113 646 q 311 440 281 475 q 342 406 331 419 q 358 375 356 386 q 359 363 360 368 q 357 356 358 358 l 356 353 q 351 347 354 350 q 343 338 349 343 q 317 313 338 332 l 235 236 q 61 76 93 108 q 42 68 53 68 q 22 76 31 68 q 14 96 14 85 q 22 115 14 107 z "},"?":{"ha":518,"x_min":28,"x_max":460,"o":"m 29 704 q 99 828 36 764 q 229 919 156 885 q 368 944 310 957 q 454 842 446 929 q 408 696 460 776 q 303 557 392 669 q 196 394 231 467 q 168 236 161 319 q 162 215 169 224 q 142 206 154 207 q 122 212 131 204 q 113 231 114 219 q 144 413 104 329 q 258 592 185 497 q 361 726 346 701 q 399 836 403 790 q 358 890 394 883 q 252 869 317 899 q 138 789 188 839 q 85 699 89 739 q 74 680 83 688 q 54 674 65 672 q 35 684 43 675 q 29 704 28 693 m 169 85 q 174 81 169 85 q 178 65 178 76 q 169 46 178 54 q 150 38 161 38 q 131 46 139 38 q 122 65 122 54 q 131 85 122 76 q 150 93 139 93 q 169 85 161 93 z "},"@":{"ha":924,"x_min":0,"x_max":872,"o":"m 518 672 q 494 725 510 715 q 464 724 483 732 q 342 590 407 697 q 256 385 274 482 q 283 268 239 289 q 328 276 303 260 q 386 338 354 294 q 471 489 426 393 q 511 581 507 567 q 515 604 513 582 q 518 621 517 615 q 524 631 519 626 q 553 640 535 644 q 569 628 564 638 q 574 621 572 625 q 579 556 582 597 l 575 518 q 571 488 572 493 q 586 369 563 406 q 628 338 606 340 q 672 351 647 335 q 760 456 726 386 q 811 614 797 533 q 805 777 825 694 q 725 911 785 860 q 529 958 660 967 q 326 888 418 951 q 172 721 235 825 q 84 506 111 622 q 68 281 57 389 q 142 119 78 188 q 297 24 206 50 q 483 19 389 -3 q 675 126 581 40 q 806 308 769 213 q 820 324 810 319 q 842 325 831 329 q 858 310 853 321 q 858 289 863 300 q 712 85 817 181 q 494 -36 607 -10 q 283 -30 389 -60 q 101 81 176 0 q 13 275 25 163 q 29 518 0 392 q 124 750 58 644 q 297 935 194 864 q 526 1014 399 1006 q 761 953 679 1024 q 844 836 817 904 q 872 697 872 768 q 854 558 871 625 q 810 431 839 490 q 703 304 769 347 q 619 282 660 276 q 539 339 572 289 q 513 449 511 381 q 432 306 471 361 q 358 229 394 253 q 261 218 307 196 q 201 394 176 257 q 294 619 221 501 q 440 774 368 740 q 525 772 489 796 q 574 683 560 749 q 569 663 575 672 q 551 651 563 653 q 531 655 540 649 q 518 672 521 661 z "},"A":{"ha":608,"x_min":39,"x_max":601,"o":"m 182 342 q 457 346 257 346 l 385 643 q 369 708 382 653 q 350 797 360 757 l 333 867 q 321 829 326 847 q 251 590 299 749 q 182 342 221 488 m 43 35 l 117 308 q 199 607 163 488 l 268 843 q 292 918 276 878 q 300 943 296 933 l 304 951 q 306 956 304 954 q 308 960 307 958 l 314 965 q 349 964 332 978 q 367 936 358 956 q 381 901 374 922 q 404 811 392 868 l 425 721 q 438 657 436 667 q 485 463 454 594 q 543 229 517 331 q 597 38 569 128 q 596 16 601 26 q 579 2 590 6 q 558 4 568 -1 q 544 21 547 10 q 471 290 510 133 l 467 290 q 168 286 243 290 q 96 21 119 103 q 83 3 93 10 q 62 1 72 -3 q 45 15 51 4 q 43 35 39 25 z "},"B":{"ha":556,"x_min":25,"x_max":531,"o":"m 279 563 q 310 554 296 560 q 447 456 392 522 q 517 311 503 390 q 494 154 531 229 q 369 32 457 79 q 68 0 279 -15 q 56 -3 63 -3 q 36 6 44 -3 q 28 25 28 14 q 26 468 28 172 q 25 911 25 764 q 33 930 25 922 q 50 939 40 938 q 294 940 196 983 q 413 797 393 896 q 390 668 425 731 q 279 563 356 606 m 83 506 l 82 506 q 83 56 83 190 q 344 82 269 42 q 444 178 415 119 q 461 303 472 238 q 404 421 450 367 q 290 501 358 475 q 104 508 233 524 q 86 506 96 507 l 83 506 m 100 564 q 232 600 178 576 q 315 658 288 626 q 353 723 342 690 q 358 788 364 756 q 270 890 344 854 q 81 890 196 926 q 82 561 81 761 l 100 564 z "},"C":{"ha":540,"x_min":-8,"x_max":476,"o":"m 347 751 q 314 849 339 804 q 257 913 289 894 q 201 918 228 931 q 132 843 164 903 q 54 572 72 732 q 60 288 36 414 q 134 101 79 158 q 249 51 189 43 q 360 133 310 61 q 419 329 411 206 q 429 349 421 342 q 449 356 438 357 q 469 346 461 354 q 475 326 476 338 q 404 99 465 188 q 257 -3 343 10 q 97 58 167 -17 q 4 279 26 135 q -8 476 -8 376 q 15 681 -8 575 q 82 868 39 788 q 179 969 125 947 q 286 961 232 993 q 360 879 329 935 q 403 760 392 824 q 397 740 404 749 q 379 728 390 731 q 359 733 368 726 q 347 751 350 740 z "},"D":{"ha":600,"x_min":21,"x_max":538,"o":"m 76 913 q 78 484 76 769 q 81 56 81 199 q 258 108 179 65 q 385 213 338 150 q 458 352 433 276 q 481 508 482 428 q 452 662 479 589 q 376 792 425 735 q 249 881 326 849 q 76 913 171 914 m 51 967 q 258 938 165 974 q 410 835 351 901 q 502 685 469 769 q 536 510 535 601 q 508 330 538 417 q 422 170 479 243 q 271 51 365 97 q 58 -1 176 4 q 46 1 51 -1 q 25 28 25 6 q 23 483 25 179 q 21 939 21 788 q 29 958 21 950 q 49 967 38 967 l 51 967 z "},"E":{"ha":471,"x_min":28,"x_max":449,"o":"m 57 972 q 238 970 117 971 q 422 967 360 969 q 441 958 433 967 q 449 938 449 950 q 440 919 449 926 q 419 911 432 911 q 245 915 358 914 q 83 915 132 915 l 83 531 q 240 530 136 529 q 394 529 343 531 q 415 521 407 529 q 422 501 422 513 q 414 481 422 489 q 394 474 406 474 q 238 474 342 475 q 83 475 135 474 l 83 53 q 408 50 207 50 q 428 42 419 50 q 436 22 436 33 q 428 3 436 11 q 408 -6 419 -6 q 56 -1 190 -6 q 38 6 46 -1 q 29 22 31 13 q 28 32 28 26 l 28 943 l 28 944 l 28 946 q 36 965 28 957 q 56 972 44 972 l 57 972 z "},"F":{"ha":479,"x_min":28,"x_max":449,"o":"m 57 972 q 238 970 117 971 q 422 967 360 969 q 441 958 433 967 q 449 938 449 950 q 440 919 449 926 q 419 911 432 911 q 245 915 358 914 q 83 915 132 915 l 83 531 q 240 530 136 529 q 394 529 343 531 q 415 521 407 529 q 422 501 422 513 q 414 481 422 489 q 394 474 406 474 q 238 474 342 475 q 83 475 135 474 l 83 24 q 75 4 83 13 q 56 -4 67 -4 q 36 4 44 -4 q 28 24 28 13 l 28 943 l 28 944 l 28 946 q 36 965 28 957 q 56 972 44 972 l 57 972 z "},"G":{"ha":549,"x_min":26,"x_max":513,"o":"m 382 751 q 349 849 374 804 q 292 913 324 894 q 236 918 263 931 q 167 843 199 903 q 89 572 107 732 q 94 288 71 414 q 149 121 111 175 q 283 60 194 56 q 358 83 328 63 q 410 146 388 103 q 454 340 446 208 q 356 337 425 340 q 249 333 286 333 q 229 342 238 333 q 221 361 221 350 q 229 381 221 372 q 249 389 238 389 q 363 392 286 389 q 476 396 439 396 q 494 389 486 396 q 511 363 513 382 q 460 118 501 196 q 286 4 400 10 q 103 89 167 -1 q 39 279 58 154 q 26 476 26 376 q 50 681 26 575 q 117 868 74 788 q 214 969 160 947 q 321 961 267 993 q 395 879 364 935 q 438 760 426 824 q 432 740 439 749 q 414 728 425 731 q 394 733 403 726 q 382 751 385 740 z "},"H":{"ha":499,"x_min":28,"x_max":456,"o":"m 456 940 l 456 19 q 447 0 456 8 q 428 -8 439 -8 q 408 0 417 -8 q 400 19 400 8 l 400 469 q 238 469 344 469 q 83 468 132 468 l 83 24 q 75 4 83 13 q 56 -4 67 -4 q 36 4 44 -4 q 28 24 28 13 l 28 944 q 36 964 28 956 q 56 972 44 972 q 75 964 67 972 q 83 944 83 956 l 83 524 q 238 524 132 524 q 400 525 344 525 l 400 940 q 408 960 400 951 q 428 968 417 968 q 447 960 439 968 q 456 940 456 951 z "},"I":{"ha":179,"x_min":58,"x_max":114,"o":"m 114 946 l 114 25 q 106 6 114 14 q 86 -3 97 -3 q 67 6 75 -3 q 58 25 58 14 l 58 946 q 67 965 58 957 q 86 974 75 974 q 106 965 97 974 q 114 946 114 957 z "},"J":{"ha":479,"x_min":47,"x_max":438,"o":"m 435 944 q 435 677 433 850 q 438 443 438 504 l 438 401 l 438 353 q 437 310 438 343 q 433 260 436 276 q 427 216 431 243 q 417 167 424 189 q 404 124 411 144 q 347 38 383 69 q 271 4 311 7 q 189 15 231 1 q 88 97 129 39 q 47 226 47 154 q 56 246 47 238 q 75 254 64 254 q 94 246 86 254 q 103 226 103 238 q 133 128 103 172 q 208 67 164 85 q 262 60 236 58 q 312 82 288 61 q 351 143 336 103 q 363 178 358 160 q 371 213 368 197 q 376 251 374 228 q 380 288 379 275 q 381 328 381 300 q 382 365 382 356 l 382 406 l 382 443 q 380 677 382 504 q 379 944 378 850 q 388 965 379 957 q 408 972 396 972 q 427 964 419 972 q 435 944 435 956 z "},"K":{"ha":600,"x_min":58,"x_max":564,"o":"m 196 610 l 117 497 l 114 494 l 114 25 q 106 6 114 14 q 86 -3 97 -3 q 67 6 75 -3 q 58 25 58 14 l 58 946 q 67 965 58 957 q 86 974 75 974 q 106 965 97 974 q 114 946 114 957 l 114 590 l 371 954 q 389 966 378 964 q 410 962 400 968 q 422 944 419 956 q 418 924 424 933 l 232 660 q 403 337 296 549 q 558 42 511 125 q 560 19 564 31 q 547 3 557 8 q 525 1 536 -3 q 508 14 514 4 l 358 303 q 196 610 257 504 z "},"L":{"ha":490,"x_min":58,"x_max":460,"o":"m 88 -3 l 86 -3 q 67 6 75 -3 q 58 25 58 14 l 58 946 q 67 965 58 957 q 86 974 75 974 q 106 965 97 974 q 114 946 114 957 l 114 51 q 273 51 161 50 q 433 50 385 51 q 452 42 444 50 q 460 22 460 33 q 451 2 460 10 q 431 -6 443 -6 q 263 -5 374 -4 q 96 -4 153 -6 q 88 -3 92 -4 z "},"M":{"ha":878,"x_min":58,"x_max":814,"o":"m 453 715 q 458 568 454 699 q 459 294 463 522 q 456 21 456 67 q 447 1 456 10 q 428 -7 439 -7 q 408 1 417 -7 q 400 21 400 10 q 403 293 400 67 q 403 565 407 519 q 402 615 403 579 q 401 667 401 650 q 397 713 400 685 q 390 763 394 740 q 379 807 386 785 q 313 908 354 886 q 240 904 281 925 q 162 829 197 882 q 117 719 126 776 l 114 711 l 114 25 q 106 6 114 14 q 86 -3 97 -3 q 67 6 75 -3 q 58 25 58 14 l 58 946 q 67 965 58 957 q 86 974 75 974 q 106 965 97 974 q 114 946 114 957 l 114 857 q 215 953 158 924 q 339 957 281 988 q 431 828 399 925 q 557 954 478 919 q 685 956 625 986 q 781 824 749 922 q 797 756 790 793 q 804 699 803 718 q 808 628 806 679 q 810 569 810 578 q 814 397 814 488 q 812 194 814 306 q 810 22 810 82 q 801 3 810 11 q 782 -6 793 -6 q 763 3 771 -6 q 754 22 754 11 q 756 193 754 82 q 758 395 758 304 q 754 567 758 486 q 752 628 754 579 q 749 694 750 676 q 742 746 747 713 q 728 807 738 779 q 658 906 703 883 q 581 904 624 925 q 498 831 535 883 q 454 719 461 779 q 453 715 454 718 z "},"N":{"ha":593,"x_min":54,"x_max":529,"o":"m 114 706 q 110 26 110 49 q 101 7 110 15 q 82 -1 93 -1 q 63 7 71 -1 q 54 26 54 15 q 57 488 54 181 q 60 947 60 794 q 68 967 60 958 q 88 975 76 975 q 107 967 99 975 q 115 947 115 958 l 115 853 q 236 953 165 922 q 329 969 283 969 q 419 936 375 968 q 492 846 463 904 q 522 682 514 799 q 529 444 529 588 q 524 219 528 369 q 522 24 521 68 q 515 3 522 11 q 495 -6 507 -6 q 475 2 483 -6 q 467 21 467 10 q 469 219 465 67 q 474 446 472 371 q 468 678 474 589 q 442 821 460 785 q 388 890 419 867 q 324 914 356 914 q 258 901 292 914 q 165 826 204 878 q 117 713 125 774 q 114 706 115 710 z "},"O":{"ha":600,"x_min":26,"x_max":581,"o":"m 317 967 q 340 965 328 971 q 480 823 424 919 q 558 615 536 726 q 574 392 581 504 q 485 103 563 211 q 244 7 392 -22 q 72 190 126 32 q 42 506 26 324 q 117 814 56 685 q 294 974 189 963 q 317 967 307 975 m 300 918 q 167 789 225 911 q 97 501 111 671 q 124 208 83 329 q 256 63 167 81 q 439 136 368 39 q 518 394 508 231 q 473 709 528 560 q 313 915 418 858 q 307 919 310 918 q 300 918 304 918 z "},"P":{"ha":510,"x_min":58,"x_max":497,"o":"m 114 347 l 114 25 q 106 6 114 14 q 86 -3 97 -3 q 67 6 75 -3 q 58 25 58 14 l 58 946 q 67 965 58 957 q 86 974 75 974 q 106 965 97 974 q 114 946 114 957 l 114 921 q 275 965 178 964 q 383 936 339 967 q 453 854 429 907 q 464 628 497 758 q 419 518 449 569 q 345 424 389 467 q 242 361 301 382 q 114 347 182 340 m 114 851 l 114 403 q 301 460 222 389 q 410 642 381 531 q 403 832 439 753 q 275 910 367 911 q 189 897 224 908 q 117 854 154 885 l 114 851 z "},"Q":{"ha":649,"x_min":42,"x_max":600,"o":"m 485 85 q 260 7 396 -21 q 88 190 142 32 q 57 506 42 324 q 132 814 71 685 q 310 974 204 963 q 332 967 322 975 q 356 965 343 971 q 495 823 439 919 q 574 615 551 726 q 589 392 596 504 q 518 132 579 236 q 593 39 554 90 q 599 19 600 31 q 588 0 597 7 q 567 -6 579 -7 q 549 6 556 -4 l 485 85 m 315 918 q 182 789 240 911 q 113 501 126 671 q 139 208 99 329 q 271 63 182 81 q 449 128 379 40 q 375 207 413 169 q 367 226 367 215 q 375 246 367 238 q 394 254 383 254 q 414 246 406 254 q 479 176 447 213 q 533 396 525 267 q 488 709 543 560 q 328 915 433 858 q 322 919 325 918 q 315 918 319 918 z "},"R":{"ha":604,"x_min":56,"x_max":567,"o":"m 111 906 l 111 525 q 240 565 183 536 q 329 631 297 594 q 377 708 361 668 q 390 785 393 747 q 315 900 386 864 q 111 906 238 942 m 183 485 q 111 468 149 474 l 111 25 q 103 6 111 14 q 83 -3 94 -3 q 64 6 72 -3 q 56 25 56 14 l 56 935 q 64 954 56 946 q 83 963 72 963 q 97 958 90 963 q 342 950 244 1000 q 416 883 389 925 q 446 788 443 840 q 397 626 451 704 q 238 503 342 547 l 297 413 l 364 311 l 424 224 l 494 125 l 560 39 q 565 19 567 31 q 555 0 564 7 q 534 -6 546 -7 q 515 6 522 -4 q 425 128 474 58 l 350 233 l 260 369 l 183 485 z "},"S":{"ha":522,"x_min":44,"x_max":486,"o":"m 411 719 q 391 853 425 806 q 299 910 357 901 q 192 889 240 918 q 133 803 143 860 q 179 665 122 742 q 210 626 192 647 l 243 592 l 282 550 q 319 511 310 522 q 381 446 357 474 q 433 376 406 418 q 473 296 461 333 q 485 210 485 258 q 468 115 486 163 q 401 31 447 63 q 297 -10 354 -1 q 188 2 242 -17 q 101 65 135 21 q 49 299 44 140 q 57 320 49 313 q 77 328 65 328 q 97 319 89 328 q 104 299 104 311 q 146 99 101 158 q 208 56 169 69 q 291 47 247 42 q 368 76 335 53 q 416 135 401 99 q 430 209 431 172 q 419 277 429 246 q 387 344 410 308 q 340 407 364 379 l 281 471 l 243 510 l 201 551 l 168 590 q 135 631 149 613 q 78 814 63 728 q 161 937 93 896 q 306 967 229 978 q 436 888 388 956 q 467 711 485 819 q 455 693 464 700 q 435 688 446 686 q 417 699 424 690 q 411 719 410 708 z "},"T":{"ha":471,"x_min":4,"x_max":447,"o":"m 31 965 q 421 967 292 972 q 440 958 432 967 q 447 938 447 949 q 438 919 447 926 q 418 911 429 911 q 246 914 340 915 l 246 26 q 238 7 246 15 q 218 -1 229 -1 q 199 7 207 -1 q 190 26 190 15 l 190 914 l 33 910 q 13 917 21 910 q 4 937 4 925 q 12 957 4 949 q 31 965 19 965 z "},"U":{"ha":563,"x_min":54,"x_max":501,"o":"m 117 940 q 113 608 110 790 q 138 279 115 426 q 182 121 153 176 q 226 68 201 83 q 293 61 254 51 q 383 182 347 76 q 432 442 415 276 q 442 593 439 515 q 446 726 446 676 q 445 853 446 776 q 444 938 444 931 q 453 957 444 949 q 472 965 461 965 q 492 957 483 965 q 500 938 500 949 q 501 853 500 932 q 501 723 501 774 q 497 588 500 672 q 488 436 494 504 q 436 164 472 265 q 307 8 390 29 q 199 21 246 -8 q 132 96 160 43 q 82 271 99 160 q 58 607 61 421 q 61 940 54 793 q 69 960 61 953 q 90 968 78 968 q 109 960 101 968 q 117 940 117 951 z "},"V":{"ha":553,"x_min":13,"x_max":510,"o":"m 507 936 l 279 26 l 279 25 q 257 -3 279 3 q 236 2 246 -4 q 224 19 226 8 q 126 433 204 108 q 14 935 49 758 q 19 956 13 946 q 36 967 25 965 q 57 963 47 969 q 69 946 67 957 q 121 696 92 825 l 193 394 q 251 147 235 224 q 454 950 385 690 q 467 967 457 961 q 488 969 476 972 q 504 957 499 967 q 507 936 510 947 z "},"W":{"ha":864,"x_min":40,"x_max":833,"o":"m 97 944 q 144 618 113 854 q 200 254 175 382 q 222 146 214 183 q 240 82 232 106 l 247 65 q 254 82 251 72 q 269 140 260 100 q 289 218 286 211 q 400 721 342 424 q 408 736 403 729 q 422 743 414 742 q 443 740 433 746 q 456 724 453 735 q 474 647 461 704 l 507 506 l 542 357 q 596 146 575 219 q 619 76 610 101 q 624 67 622 71 q 628 78 626 71 q 642 138 633 96 q 660 217 656 200 q 696 403 678 301 q 724 575 714 504 l 751 767 l 776 944 q 788 963 778 956 q 808 968 797 969 q 826 957 819 967 q 832 936 833 947 l 807 758 l 779 564 q 750 391 768 493 q 713 206 732 289 q 696 125 710 189 q 681 61 688 82 q 657 14 671 28 q 628 1 644 1 q 597 10 613 0 q 579 31 588 17 q 568 57 574 40 q 543 131 557 83 q 488 344 521 207 l 431 590 q 342 204 385 372 q 324 128 339 192 q 307 64 314 85 q 279 15 294 29 q 249 3 267 3 q 218 14 233 3 q 200 36 208 21 q 189 64 194 47 q 169 132 179 90 q 144 243 158 172 q 88 608 119 371 q 42 936 57 846 q 47 956 40 947 q 65 967 54 965 q 85 963 76 969 q 97 944 94 956 z "},"X":{"ha":540,"x_min":36,"x_max":482,"o":"m 228 506 l 47 936 q 47 958 42 947 q 62 973 51 968 q 83 973 72 978 q 97 958 93 968 l 257 579 l 406 963 q 420 978 410 974 q 442 979 431 983 q 458 965 453 975 q 458 943 463 954 l 288 506 l 478 38 q 477 17 482 28 q 462 1 472 6 q 440 2 451 -3 q 425 18 429 7 l 258 432 l 93 18 q 78 2 89 7 q 56 1 67 -3 q 41 17 46 6 q 40 38 36 28 l 228 506 z "},"Y":{"ha":576,"x_min":93,"x_max":518,"o":"m 149 960 q 256 704 188 879 q 335 513 310 564 l 461 957 q 474 974 464 968 q 496 976 485 979 q 513 962 507 972 q 514 940 518 951 l 251 22 q 239 6 249 11 q 218 3 229 0 q 201 15 207 6 q 199 36 196 25 l 311 432 q 204 683 275 504 q 99 935 136 857 q 97 956 93 946 q 112 972 101 967 q 133 974 122 978 q 149 960 143 969 z "},"Z":{"ha":590,"x_min":31,"x_max":531,"o":"m 528 931 q 531 943 531 936 q 528 933 531 938 l 528 931 m 528 931 q 313 487 458 776 q 103 60 167 197 q 268 59 151 60 q 447 58 385 58 q 467 50 458 58 q 475 31 475 42 q 467 11 475 19 q 447 3 458 3 q 255 3 383 3 q 63 4 126 4 q 38 21 44 4 q 36 46 31 33 q 249 485 104 197 q 460 915 394 774 q 297 916 413 915 q 118 917 181 917 q 99 925 107 917 q 90 944 90 933 q 99 964 90 956 q 118 972 107 972 q 310 972 182 972 q 503 971 439 971 q 514 968 508 971 q 531 943 531 961 l 528 933 q 528 932 528 932 l 528 931 z "},"[":{"ha":313,"x_min":26,"x_max":249,"o":"m 222 918 q 140 915 190 915 l 82 915 l 82 53 q 147 54 104 54 q 208 56 189 54 q 228 48 219 56 q 238 29 238 40 q 230 9 238 18 q 211 0 222 0 q 142 -1 194 0 q 63 -4 90 -1 q 44 0 53 -4 q 26 26 26 7 l 26 939 q 44 965 26 958 q 58 969 51 969 q 139 971 81 971 q 217 974 189 971 q 238 967 229 975 q 247 948 246 960 q 241 928 249 936 q 222 918 233 919 z "},"\\":{"ha":631,"x_min":35,"x_max":571,"o":"m 90 946 l 300 563 q 565 64 476 239 q 567 43 571 54 q 553 26 563 32 q 532 25 543 21 q 515 39 521 29 l 250 536 l 40 921 q 38 942 35 931 q 52 958 42 953 q 74 960 63 964 q 90 946 85 957 z "},"]":{"ha":311,"x_min":31,"x_max":246,"o":"m 189 56 l 189 914 q 60 910 75 911 q 40 917 49 910 q 31 936 31 925 q 38 956 31 947 q 57 965 46 965 q 142 968 88 967 q 217 971 197 969 q 238 963 229 971 q 246 944 246 956 q 244 935 246 939 l 244 24 q 236 4 244 13 q 217 -4 228 -4 q 203 0 208 -4 q 142 -1 193 0 q 63 -4 90 -1 q 42 2 50 -6 q 32 22 33 10 q 38 42 31 33 q 57 51 46 50 q 189 56 67 51 z "},"^":{"ha":410,"x_min":21,"x_max":347,"o":"m 29 811 q 113 918 43 828 q 139 950 129 940 q 176 967 157 967 q 215 953 196 968 q 246 921 228 943 l 339 804 q 346 783 347 794 q 335 765 344 772 q 315 758 326 757 q 297 768 304 760 l 203 885 q 181 910 189 903 q 179 911 179 910 l 176 908 q 156 885 169 903 q 71 775 75 779 q 52 765 64 767 q 32 772 40 764 q 22 791 24 779 q 29 811 21 803 z "},"_":{"ha":596,"x_min":-8,"x_max":532,"o":"m 18 -146 q 133 -133 40 -143 q 266 -120 225 -124 q 377 -112 307 -117 q 504 -108 447 -108 q 524 -117 515 -108 q 532 -136 532 -125 q 524 -156 532 -147 q 504 -164 515 -164 q 378 -168 447 -164 q 268 -176 310 -172 l 138 -189 l 24 -201 q 3 -195 13 -203 q -7 -176 -6 -187 q -1 -156 -8 -165 q 18 -146 7 -147 z "},"`":{"ha":238,"x_min":1,"x_max":178,"o":"m 57 1069 q 171 894 81 1021 q 176 874 178 885 q 165 856 174 863 q 144 851 156 849 q 126 861 133 853 q 7 1044 35 990 q 6 1065 1 1054 q 19 1082 10 1076 q 40 1083 29 1088 q 57 1069 51 1079 z "},"a":{"ha":608,"x_min":39,"x_max":601,"o":"m 182 342 q 457 346 257 346 l 385 643 q 369 708 382 653 q 350 797 360 757 l 333 867 q 321 829 326 847 q 251 590 299 749 q 182 342 221 488 m 43 35 l 117 308 q 199 607 163 488 l 268 843 q 292 918 276 878 q 300 943 296 933 l 304 951 q 306 956 304 954 q 308 960 307 958 l 314 965 q 349 964 332 978 q 367 936 358 956 q 381 901 374 922 q 404 811 392 868 l 425 721 q 438 657 436 667 q 485 463 454 594 q 543 229 517 331 q 597 38 569 128 q 596 16 601 26 q 579 2 590 6 q 558 4 568 -1 q 544 21 547 10 q 471 290 510 133 l 467 290 q 168 286 243 290 q 96 21 119 103 q 83 3 93 10 q 62 1 72 -3 q 45 15 51 4 q 43 35 39 25 z "},"b":{"ha":556,"x_min":25,"x_max":531,"o":"m 279 563 q 310 554 296 560 q 447 456 392 522 q 517 311 503 390 q 494 154 531 229 q 369 32 457 79 q 68 0 279 -15 q 56 -3 63 -3 q 36 6 44 -3 q 28 25 28 14 q 26 468 28 172 q 25 911 25 764 q 33 930 25 922 q 50 939 40 938 q 294 940 196 983 q 413 797 393 896 q 390 668 425 731 q 279 563 356 606 m 83 506 l 82 506 q 83 56 83 190 q 344 82 269 42 q 444 178 415 119 q 461 303 472 238 q 404 421 450 367 q 290 501 358 475 q 104 508 233 524 q 86 506 96 507 l 83 506 m 100 564 q 232 600 178 576 q 315 658 288 626 q 353 723 342 690 q 358 788 364 756 q 270 890 344 854 q 81 890 196 926 q 82 561 81 761 l 100 564 z "},"c":{"ha":540,"x_min":-8,"x_max":476,"o":"m 347 751 q 314 849 339 804 q 257 913 289 894 q 201 918 228 931 q 132 843 164 903 q 54 572 72 732 q 60 288 36 414 q 134 101 79 158 q 249 51 189 43 q 360 133 310 61 q 419 329 411 206 q 429 349 421 342 q 449 356 438 357 q 469 346 461 354 q 475 326 476 338 q 404 99 465 188 q 257 -3 343 10 q 97 58 167 -17 q 4 279 26 135 q -8 476 -8 376 q 15 681 -8 575 q 82 868 39 788 q 179 969 125 947 q 286 961 232 993 q 360 879 329 935 q 403 760 392 824 q 397 740 404 749 q 379 728 390 731 q 359 733 368 726 q 347 751 350 740 z "},"d":{"ha":600,"x_min":21,"x_max":538,"o":"m 76 913 q 78 484 76 769 q 81 56 81 199 q 258 108 179 65 q 385 213 338 150 q 458 352 433 276 q 481 508 482 428 q 452 662 479 589 q 376 792 425 735 q 249 881 326 849 q 76 913 171 914 m 51 967 q 258 938 165 974 q 410 835 351 901 q 502 685 469 769 q 536 510 535 601 q 508 330 538 417 q 422 170 479 243 q 271 51 365 97 q 58 -1 176 4 q 46 1 51 -1 q 25 28 25 6 q 23 483 25 179 q 21 939 21 788 q 29 958 21 950 q 49 967 38 967 l 51 967 z "},"e":{"ha":471,"x_min":28,"x_max":449,"o":"m 57 972 q 238 970 117 971 q 422 967 360 969 q 441 958 433 967 q 449 938 449 950 q 440 919 449 926 q 419 911 432 911 q 245 915 358 914 q 83 915 132 915 l 83 531 q 240 530 136 529 q 394 529 343 531 q 415 521 407 529 q 422 501 422 513 q 414 481 422 489 q 394 474 406 474 q 238 474 342 475 q 83 475 135 474 l 83 53 q 408 50 207 50 q 428 42 419 50 q 436 22 436 33 q 428 3 436 11 q 408 -6 419 -6 q 56 -1 190 -6 q 38 6 46 -1 q 29 22 31 13 q 28 32 28 26 l 28 943 l 28 944 l 28 946 q 36 965 28 957 q 56 972 44 972 l 57 972 z "},"f":{"ha":479,"x_min":28,"x_max":449,"o":"m 57 972 q 238 970 117 971 q 422 967 360 969 q 441 958 433 967 q 449 938 449 950 q 440 919 449 926 q 419 911 432 911 q 245 915 358 914 q 83 915 132 915 l 83 531 q 240 530 136 529 q 394 529 343 531 q 415 521 407 529 q 422 501 422 513 q 414 481 422 489 q 394 474 406 474 q 238 474 342 475 q 83 475 135 474 l 83 24 q 75 4 83 13 q 56 -4 67 -4 q 36 4 44 -4 q 28 24 28 13 l 28 943 l 28 944 l 28 946 q 36 965 28 957 q 56 972 44 972 l 57 972 z "},"g":{"ha":549,"x_min":26,"x_max":513,"o":"m 382 751 q 349 849 374 804 q 292 913 324 894 q 236 918 263 931 q 167 843 199 903 q 89 572 107 732 q 94 288 71 414 q 149 121 111 175 q 283 60 194 56 q 358 83 328 63 q 410 146 388 103 q 454 340 446 208 q 356 337 425 340 q 249 333 286 333 q 229 342 238 333 q 221 361 221 350 q 229 381 221 372 q 249 389 238 389 q 363 392 286 389 q 476 396 439 396 q 494 389 486 396 q 511 363 513 382 q 460 118 501 196 q 286 4 400 10 q 103 89 167 -1 q 39 279 58 154 q 26 476 26 376 q 50 681 26 575 q 117 868 74 788 q 214 969 160 947 q 321 961 267 993 q 395 879 364 935 q 438 760 426 824 q 432 740 439 749 q 414 728 425 731 q 394 733 403 726 q 382 751 385 740 z "},"h":{"ha":499,"x_min":28,"x_max":456,"o":"m 456 940 l 456 19 q 447 0 456 8 q 428 -8 439 -8 q 408 0 417 -8 q 400 19 400 8 l 400 469 q 238 469 344 469 q 83 468 132 468 l 83 24 q 75 4 83 13 q 56 -4 67 -4 q 36 4 44 -4 q 28 24 28 13 l 28 944 q 36 964 28 956 q 56 972 44 972 q 75 964 67 972 q 83 944 83 956 l 83 524 q 238 524 132 524 q 400 525 344 525 l 400 940 q 408 960 400 951 q 428 968 417 968 q 447 960 439 968 q 456 940 456 951 z "},"i":{"ha":179,"x_min":58,"x_max":114,"o":"m 114 946 l 114 25 q 106 6 114 14 q 86 -3 97 -3 q 67 6 75 -3 q 58 25 58 14 l 58 946 q 67 965 58 957 q 86 974 75 974 q 106 965 97 974 q 114 946 114 957 z "},"j":{"ha":479,"x_min":47,"x_max":438,"o":"m 435 944 q 435 677 433 850 q 438 443 438 504 l 438 401 l 438 353 q 437 310 438 343 q 433 260 436 276 q 427 216 431 243 q 417 167 424 189 q 404 124 411 144 q 347 38 383 69 q 271 4 311 7 q 189 15 231 1 q 88 97 129 39 q 47 226 47 154 q 56 246 47 238 q 75 254 64 254 q 94 246 86 254 q 103 226 103 238 q 133 128 103 172 q 208 67 164 85 q 262 60 236 58 q 312 82 288 61 q 351 143 336 103 q 363 178 358 160 q 371 213 368 197 q 376 251 374 228 q 380 288 379 275 q 381 328 381 300 q 382 365 382 356 l 382 406 l 382 443 q 380 677 382 504 q 379 944 378 850 q 388 965 379 957 q 408 972 396 972 q 427 964 419 972 q 435 944 435 956 z "},"k":{"ha":600,"x_min":58,"x_max":564,"o":"m 196 610 l 117 497 l 114 494 l 114 25 q 106 6 114 14 q 86 -3 97 -3 q 67 6 75 -3 q 58 25 58 14 l 58 946 q 67 965 58 957 q 86 974 75 974 q 106 965 97 974 q 114 946 114 957 l 114 590 l 371 954 q 389 966 378 964 q 410 962 400 968 q 422 944 419 956 q 418 924 424 933 l 232 660 q 403 337 296 549 q 558 42 511 125 q 560 19 564 31 q 547 3 557 8 q 525 1 536 -3 q 508 14 514 4 l 358 303 q 196 610 257 504 z "},"l":{"ha":490,"x_min":58,"x_max":460,"o":"m 88 -3 l 86 -3 q 67 6 75 -3 q 58 25 58 14 l 58 946 q 67 965 58 957 q 86 974 75 974 q 106 965 97 974 q 114 946 114 957 l 114 51 q 273 51 161 50 q 433 50 385 51 q 452 42 444 50 q 460 22 460 33 q 451 2 460 10 q 431 -6 443 -6 q 263 -5 374 -4 q 96 -4 153 -6 q 88 -3 92 -4 z "},"m":{"ha":878,"x_min":58,"x_max":814,"o":"m 453 715 q 458 568 454 699 q 459 294 463 522 q 456 21 456 67 q 447 1 456 10 q 428 -7 439 -7 q 408 1 417 -7 q 400 21 400 10 q 403 293 400 67 q 403 565 407 519 q 402 615 403 579 q 401 667 401 650 q 397 713 400 685 q 390 763 394 740 q 379 807 386 785 q 313 908 354 886 q 240 904 281 925 q 162 829 197 882 q 117 719 126 776 l 114 711 l 114 25 q 106 6 114 14 q 86 -3 97 -3 q 67 6 75 -3 q 58 25 58 14 l 58 946 q 67 965 58 957 q 86 974 75 974 q 106 965 97 974 q 114 946 114 957 l 114 857 q 215 953 158 924 q 339 957 281 988 q 431 828 399 925 q 557 954 478 919 q 685 956 625 986 q 781 824 749 922 q 797 756 790 793 q 804 699 803 718 q 808 628 806 679 q 810 569 810 578 q 814 397 814 488 q 812 194 814 306 q 810 22 810 82 q 801 3 810 11 q 782 -6 793 -6 q 763 3 771 -6 q 754 22 754 11 q 756 193 754 82 q 758 395 758 304 q 754 567 758 486 q 752 628 754 579 q 749 694 750 676 q 742 746 747 713 q 728 807 738 779 q 658 906 703 883 q 581 904 624 925 q 498 831 535 883 q 454 719 461 779 q 453 715 454 718 z "},"n":{"ha":593,"x_min":54,"x_max":529,"o":"m 114 706 q 110 26 110 49 q 101 7 110 15 q 82 -1 93 -1 q 63 7 71 -1 q 54 26 54 15 q 57 488 54 181 q 60 947 60 794 q 68 967 60 958 q 88 975 76 975 q 107 967 99 975 q 115 947 115 958 l 115 853 q 236 953 165 922 q 329 969 283 969 q 419 936 375 968 q 492 846 463 904 q 522 682 514 799 q 529 444 529 588 q 524 219 528 369 q 522 24 521 68 q 515 3 522 11 q 495 -6 507 -6 q 475 2 483 -6 q 467 21 467 10 q 469 219 465 67 q 474 446 472 371 q 468 678 474 589 q 442 821 460 785 q 388 890 419 867 q 324 914 356 914 q 258 901 292 914 q 165 826 204 878 q 117 713 125 774 q 114 706 115 710 z "},"o":{"ha":600,"x_min":26,"x_max":581,"o":"m 317 967 q 340 965 328 971 q 480 823 424 919 q 558 615 536 726 q 574 392 581 504 q 485 103 563 211 q 244 7 392 -22 q 72 190 126 32 q 42 506 26 324 q 117 814 56 685 q 294 974 189 963 q 317 967 307 975 m 300 918 q 167 789 225 911 q 97 501 111 671 q 124 208 83 329 q 256 63 167 81 q 439 136 368 39 q 518 394 508 231 q 473 709 528 560 q 313 915 418 858 q 307 919 310 918 q 300 918 304 918 z "},"p":{"ha":510,"x_min":58,"x_max":497,"o":"m 114 347 l 114 25 q 106 6 114 14 q 86 -3 97 -3 q 67 6 75 -3 q 58 25 58 14 l 58 946 q 67 965 58 957 q 86 974 75 974 q 106 965 97 974 q 114 946 114 957 l 114 921 q 275 965 178 964 q 383 936 339 967 q 453 854 429 907 q 464 628 497 758 q 419 518 449 569 q 345 424 389 467 q 242 361 301 382 q 114 347 182 340 m 114 851 l 114 403 q 301 460 222 389 q 410 642 381 531 q 403 832 439 753 q 275 910 367 911 q 189 897 224 908 q 117 854 154 885 l 114 851 z "},"q":{"ha":649,"x_min":42,"x_max":600,"o":"m 485 85 q 260 7 396 -21 q 88 190 142 32 q 57 506 42 324 q 132 814 71 685 q 310 974 204 963 q 332 967 322 975 q 356 965 343 971 q 495 823 439 919 q 574 615 551 726 q 589 392 596 504 q 518 132 579 236 q 593 39 554 90 q 599 19 600 31 q 588 0 597 7 q 567 -6 579 -7 q 549 6 556 -4 l 485 85 m 315 918 q 182 789 240 911 q 113 501 126 671 q 139 208 99 329 q 271 63 182 81 q 449 128 379 40 q 375 207 413 169 q 367 226 367 215 q 375 246 367 238 q 394 254 383 254 q 414 246 406 254 q 479 176 447 213 q 533 396 525 267 q 488 709 543 560 q 328 915 433 858 q 322 919 325 918 q 315 918 319 918 z "},"r":{"ha":604,"x_min":56,"x_max":567,"o":"m 111 906 l 111 525 q 240 565 183 536 q 329 631 297 594 q 377 708 361 668 q 390 785 393 747 q 315 900 386 864 q 111 906 238 942 m 183 485 q 111 468 149 474 l 111 25 q 103 6 111 14 q 83 -3 94 -3 q 64 6 72 -3 q 56 25 56 14 l 56 935 q 64 954 56 946 q 83 963 72 963 q 97 958 90 963 q 342 950 244 1000 q 416 883 389 925 q 446 788 443 840 q 397 626 451 704 q 238 503 342 547 l 297 413 l 364 311 l 424 224 l 494 125 l 560 39 q 565 19 567 31 q 555 0 564 7 q 534 -6 546 -7 q 515 6 522 -4 q 425 128 474 58 l 350 233 l 260 369 l 183 485 z "},"s":{"ha":522,"x_min":44,"x_max":486,"o":"m 411 719 q 391 853 425 806 q 299 910 357 901 q 192 889 240 918 q 133 803 143 860 q 179 665 122 742 q 210 626 192 647 l 243 592 l 282 550 q 319 511 310 522 q 381 446 357 474 q 433 376 406 418 q 473 296 461 333 q 485 210 485 258 q 468 115 486 163 q 401 31 447 63 q 297 -10 354 -1 q 188 2 242 -17 q 101 65 135 21 q 49 299 44 140 q 57 320 49 313 q 77 328 65 328 q 97 319 89 328 q 104 299 104 311 q 146 99 101 158 q 208 56 169 69 q 291 47 247 42 q 368 76 335 53 q 416 135 401 99 q 430 209 431 172 q 419 277 429 246 q 387 344 410 308 q 340 407 364 379 l 281 471 l 243 510 l 201 551 l 168 590 q 135 631 149 613 q 78 814 63 728 q 161 937 93 896 q 306 967 229 978 q 436 888 388 956 q 467 711 485 819 q 455 693 464 700 q 435 688 446 686 q 417 699 424 690 q 411 719 410 708 z "},"t":{"ha":471,"x_min":4,"x_max":447,"o":"m 31 965 q 421 967 292 972 q 440 958 432 967 q 447 938 447 949 q 438 919 447 926 q 418 911 429 911 q 246 914 340 915 l 246 26 q 238 7 246 15 q 218 -1 229 -1 q 199 7 207 -1 q 190 26 190 15 l 190 914 l 33 910 q 13 917 21 910 q 4 937 4 925 q 12 957 4 949 q 31 965 19 965 z "},"u":{"ha":563,"x_min":54,"x_max":501,"o":"m 117 940 q 113 608 110 790 q 138 279 115 426 q 182 121 153 176 q 226 68 201 83 q 293 61 254 51 q 383 182 347 76 q 432 442 415 276 q 442 593 439 515 q 446 726 446 676 q 445 853 446 776 q 444 938 444 931 q 453 957 444 949 q 472 965 461 965 q 492 957 483 965 q 500 938 500 949 q 501 853 500 932 q 501 723 501 774 q 497 588 500 672 q 488 436 494 504 q 436 164 472 265 q 307 8 390 29 q 199 21 246 -8 q 132 96 160 43 q 82 271 99 160 q 58 607 61 421 q 61 940 54 793 q 69 960 61 953 q 90 968 78 968 q 109 960 101 968 q 117 940 117 951 z "},"v":{"ha":553,"x_min":13,"x_max":510,"o":"m 507 936 l 279 26 l 279 25 q 257 -3 279 3 q 236 2 246 -4 q 224 19 226 8 q 126 433 204 108 q 14 935 49 758 q 19 956 13 946 q 36 967 25 965 q 57 963 47 969 q 69 946 67 957 q 121 696 92 825 l 193 394 q 251 147 235 224 q 454 950 385 690 q 467 967 457 961 q 488 969 476 972 q 504 957 499 967 q 507 936 510 947 z "},"w":{"ha":864,"x_min":40,"x_max":833,"o":"m 97 944 q 144 618 113 854 q 200 254 175 382 q 222 146 214 183 q 240 82 232 106 l 247 65 q 254 82 251 72 q 269 140 260 100 q 289 218 286 211 q 400 721 342 424 q 408 736 403 729 q 422 743 414 742 q 443 740 433 746 q 456 724 453 735 q 474 647 461 704 l 507 506 l 542 357 q 596 146 575 219 q 619 76 610 101 q 624 67 622 71 q 628 78 626 71 q 642 138 633 96 q 660 217 656 200 q 696 403 678 301 q 724 575 714 504 l 751 767 l 776 944 q 788 963 778 956 q 808 968 797 969 q 826 957 819 967 q 832 936 833 947 l 807 758 l 779 564 q 750 391 768 493 q 713 206 732 289 q 696 125 710 189 q 681 61 688 82 q 657 14 671 28 q 628 1 644 1 q 597 10 613 0 q 579 31 588 17 q 568 57 574 40 q 543 131 557 83 q 488 344 521 207 l 431 590 q 342 204 385 372 q 324 128 339 192 q 307 64 314 85 q 279 15 294 29 q 249 3 267 3 q 218 14 233 3 q 200 36 208 21 q 189 64 194 47 q 169 132 179 90 q 144 243 158 172 q 88 608 119 371 q 42 936 57 846 q 47 956 40 947 q 65 967 54 965 q 85 963 76 969 q 97 944 94 956 z "},"x":{"ha":540,"x_min":36,"x_max":482,"o":"m 228 506 l 47 936 q 47 958 42 947 q 62 973 51 968 q 83 973 72 978 q 97 958 93 968 l 257 579 l 406 963 q 420 978 410 974 q 442 979 431 983 q 458 965 453 975 q 458 943 463 954 l 288 506 l 478 38 q 477 17 482 28 q 462 1 472 6 q 440 2 451 -3 q 425 18 429 7 l 258 432 l 93 18 q 78 2 89 7 q 56 1 67 -3 q 41 17 46 6 q 40 38 36 28 l 228 506 z "},"y":{"ha":576,"x_min":93,"x_max":518,"o":"m 149 960 q 256 704 188 879 q 335 513 310 564 l 461 957 q 474 974 464 968 q 496 976 485 979 q 513 962 507 972 q 514 940 518 951 l 251 22 q 239 6 249 11 q 218 3 229 0 q 201 15 207 6 q 199 36 196 25 l 311 432 q 204 683 275 504 q 99 935 136 857 q 97 956 93 946 q 112 972 101 967 q 133 974 122 978 q 149 960 143 969 z "},"z":{"ha":590,"x_min":31,"x_max":531,"o":"m 528 931 q 531 943 531 936 q 528 933 531 938 l 528 931 m 528 931 q 313 487 458 776 q 103 60 167 197 q 268 59 151 60 q 447 58 385 58 q 467 50 458 58 q 475 31 475 42 q 467 11 475 19 q 447 3 458 3 q 255 3 383 3 q 63 4 126 4 q 38 21 44 4 q 36 46 31 33 q 249 485 104 197 q 460 915 394 774 q 297 916 413 915 q 118 917 181 917 q 99 925 107 917 q 90 944 90 933 q 99 964 90 956 q 118 972 107 972 q 310 972 182 972 q 503 971 439 971 q 514 968 508 971 q 531 943 531 961 l 528 933 q 528 932 528 932 l 528 931 z "},"{":{"ha":464,"x_min":21,"x_max":401,"o":"m 368 994 q 215 940 268 1010 q 185 769 165 874 q 191 746 186 757 q 208 711 196 735 q 222 681 219 688 q 242 563 256 610 q 200 508 235 536 q 140 468 176 489 l 129 463 l 133 463 q 243 381 233 446 q 211 275 250 336 l 178 225 q 143 176 154 193 q 106 78 108 119 q 143 -25 101 25 q 226 -76 178 -65 q 332 -75 274 -87 q 352 -81 343 -74 q 363 -99 361 -87 q 358 -119 365 -110 q 340 -131 351 -128 q 254 -136 294 -136 q 174 -117 214 -136 q 101 -61 133 -99 q 50 82 43 7 q 96 206 54 138 l 132 257 l 164 304 q 188 372 192 349 q 125 407 183 397 q 96 412 114 410 q 71 415 78 414 q 46 421 56 417 q 22 451 25 431 q 29 472 21 463 l 33 476 q 36 478 35 478 q 39 480 38 479 q 44 482 40 481 l 61 490 q 113 517 90 504 q 165 551 146 536 q 189 579 186 568 q 172 657 196 606 l 161 679 l 149 706 q 138 732 143 717 q 129 758 132 747 q 171 974 106 888 q 376 1050 243 1069 q 394 1039 388 1049 q 400 1018 401 1029 q 389 1000 399 1007 q 368 994 379 993 z "},"|":{"ha":833,"x_min":40,"x_max":810,"o":"m 442 724 q 508 919 440 835 q 608 981 547 967 q 724 967 669 996 q 797 871 779 938 q 807 828 804 850 q 808 781 810 806 q 805 738 806 756 q 795 692 804 721 q 783 650 786 663 q 767 605 781 638 q 750 564 753 572 q 731 519 747 556 q 713 479 714 482 q 673 381 688 421 q 647 290 658 340 q 638 192 635 239 q 661 97 642 144 q 657 69 667 82 q 638 56 650 58 q 617 60 626 54 q 604 78 607 65 q 558 184 592 133 q 469 278 524 235 q 369 351 415 321 q 256 415 322 381 l 211 439 q 161 468 181 456 q 79 557 99 507 q 94 719 40 649 q 232 793 140 781 q 342 783 286 800 q 442 724 397 765 m 510 619 q 519 588 515 604 q 517 567 522 576 q 500 554 511 557 q 479 557 489 551 q 467 574 469 563 l 465 578 q 458 590 461 583 l 456 603 q 364 713 425 679 q 239 738 303 746 q 139 685 171 729 q 129 579 104 640 q 190 514 144 544 q 236 489 208 503 q 283 465 282 465 l 388 404 q 489 333 432 378 q 583 240 546 288 q 661 501 590 339 q 672 526 665 510 l 704 599 q 728 664 714 624 q 747 731 743 704 q 752 792 751 758 q 744 857 753 826 q 698 917 733 897 q 622 927 663 936 q 553 883 581 918 q 499 760 507 828 q 510 619 490 693 z "},"}":{"ha":458,"x_min":32,"x_max":396,"o":"m 71 -82 q 207 -44 160 -92 q 249 21 238 -14 q 256 85 260 56 q 239 153 253 115 q 218 204 232 172 q 196 253 201 242 q 181 353 171 315 q 219 410 186 381 q 278 451 242 431 l 286 457 q 281 458 283 458 q 176 551 181 472 q 210 661 174 599 q 240 710 218 676 l 269 758 q 299 850 299 811 q 256 944 300 897 q 172 994 219 985 q 67 988 125 1003 q 46 992 56 986 q 34 1010 36 999 q 38 1031 32 1021 q 56 1043 44 1040 q 142 1052 101 1051 q 223 1036 182 1053 q 297 983 264 1019 q 354 849 356 919 q 318 731 354 796 q 288 681 308 713 l 258 633 q 232 554 231 585 q 247 527 233 536 q 289 513 260 518 q 319 510 300 511 q 343 508 339 508 q 368 503 358 506 q 394 475 390 494 q 394 462 396 468 q 389 453 392 456 l 388 450 q 383 447 385 449 q 379 444 381 446 q 374 442 378 443 l 357 432 q 307 404 328 418 q 256 368 275 385 q 233 339 236 351 q 247 274 229 319 l 268 226 q 292 172 283 193 q 246 -83 347 18 q 65 -137 181 -150 q 47 -127 54 -136 q 40 -107 39 -118 q 51 -88 42 -96 q 71 -82 60 -81 z "},"~":{"ha":514,"x_min":28,"x_max":451,"o":"m 33 844 q 153 938 89 931 q 257 907 194 942 q 332 874 313 875 q 400 918 365 871 q 418 929 407 928 q 439 924 429 931 q 450 906 449 917 q 444 885 451 894 q 328 818 392 814 q 229 858 296 821 q 158 882 182 885 q 81 814 121 878 q 63 802 74 804 q 42 806 51 800 q 30 824 32 813 q 33 844 28 835 z "},"":{"ha":146,"x_min":25,"x_max":81,"o":"m 81 783 l 81 26 q 72 7 81 15 q 53 -1 64 -1 q 33 7 42 -1 q 25 26 25 15 l 25 783 q 33 803 25 794 q 53 811 42 811 q 72 803 64 811 q 81 783 81 794 m 72 956 q 76 951 72 956 q 81 936 81 947 q 72 917 81 925 q 53 908 64 908 q 33 917 42 908 q 25 936 25 925 q 33 956 25 947 q 53 964 42 964 q 72 956 64 964 z "},"":{"ha":482,"x_min":40,"x_max":436,"o":"m 317 382 q 238 543 282 517 q 179 519 211 558 q 119 376 140 469 q 113 206 97 283 q 159 91 126 125 q 229 60 192 57 q 310 99 269 61 q 379 207 351 138 q 395 222 385 217 q 416 222 406 226 q 431 206 426 217 q 432 185 436 196 q 345 56 399 106 q 233 4 292 7 q 122 50 168 0 q 57 194 75 100 q 65 390 40 285 q 136 554 89 494 q 172 588 153 575 q 217 603 192 600 q 265 590 242 607 q 369 396 329 553 q 367 375 372 385 q 350 363 361 365 q 329 365 339 360 q 317 382 319 371 m 278 -69 q 276 -181 285 -115 q 266 -200 275 -193 q 245 -206 257 -207 q 226 -195 233 -204 q 221 -175 219 -186 q 222 -78 228 -117 q 228 -57 221 -67 q 246 -46 235 -47 q 267 -51 257 -44 q 278 -69 276 -58 m 243 782 q 246 679 243 717 q 240 660 247 668 q 220 650 232 651 q 200 656 208 649 q 190 676 192 664 q 188 782 188 714 q 196 801 188 793 q 215 810 204 810 q 235 801 226 810 q 243 782 243 793 z "},"":{"ha":692,"x_min":28,"x_max":632,"o":"m 476 806 q 467 888 481 858 q 433 923 453 917 q 383 915 413 929 q 326 856 354 900 q 251 693 278 782 q 203 488 224 604 l 222 488 q 300 493 240 489 q 390 497 360 497 q 410 489 401 497 q 418 469 418 481 q 410 450 418 458 q 390 442 401 442 q 301 438 360 442 l 224 432 l 194 432 q 168 271 175 310 q 132 110 153 192 q 200 124 161 121 q 319 104 249 126 l 369 86 q 426 69 407 74 q 511 63 479 54 q 579 121 550 74 q 596 133 585 131 q 617 131 607 136 q 629 114 626 125 q 626 93 632 103 q 526 10 588 25 q 413 15 479 -3 q 354 33 392 21 l 303 51 q 203 68 242 71 q 124 40 154 65 q 114 19 122 39 q 68 -17 99 -17 q 43 0 50 -17 q 40 18 38 8 q 44 28 42 22 q 47 33 44 29 q 51 40 50 38 q 68 82 63 61 q 113 282 94 183 q 138 433 119 317 q 50 450 89 438 q 33 464 39 454 q 32 485 28 474 q 46 501 36 496 q 67 503 56 507 q 147 489 101 492 q 197 709 168 613 q 279 886 226 806 q 361 965 315 940 q 450 976 407 990 q 515 915 493 961 q 532 803 536 868 q 522 783 531 790 q 502 776 514 775 q 483 786 490 778 q 476 806 475 794 z "},"":{"ha":703,"x_min":32,"x_max":638,"o":"m 156 544 q 115 428 118 486 q 136 328 113 371 q 200 254 160 285 q 298 209 246 219 q 403 217 350 199 q 492 281 456 233 q 536 385 531 331 q 521 485 542 439 q 459 565 500 531 q 368 612 418 599 q 262 610 318 625 q 158 547 206 594 l 156 544 m 124 596 q 58 663 117 604 q 50 682 50 671 q 58 701 50 693 q 78 710 67 710 q 97 701 89 710 q 169 628 158 640 q 284 670 224 663 q 397 660 344 678 q 494 607 450 643 q 506 597 500 603 q 578 668 556 649 q 597 675 586 675 q 616 666 608 675 q 624 646 624 657 q 614 626 624 635 q 543 556 593 608 q 588 463 575 513 q 588 356 600 413 q 536 247 576 299 l 533 244 q 631 149 578 204 q 638 128 638 140 q 629 109 638 117 q 609 101 621 101 q 589 110 597 101 q 494 204 538 167 q 328 150 417 146 q 167 210 240 154 q 79 111 139 168 q 59 104 71 104 q 40 113 47 104 q 32 133 32 121 q 40 153 32 144 q 122 243 97 206 l 126 247 q 69 345 86 292 q 65 465 53 399 q 124 596 76 532 z "},"":{"ha":649,"x_min":74,"x_max":585,"o":"m 304 575 l 332 513 l 350 578 l 331 576 q 304 575 317 575 m 106 632 q 224 626 161 625 l 201 683 q 96 935 133 857 q 94 956 90 946 q 109 972 99 967 q 130 974 119 978 q 146 960 140 969 q 253 704 185 879 l 282 629 q 326 632 301 631 l 367 635 l 458 957 q 472 974 461 968 q 493 976 482 979 q 510 962 504 972 q 511 940 515 951 l 425 639 q 557 644 506 644 q 576 636 568 644 q 585 617 585 628 q 576 597 585 606 q 557 589 568 589 q 408 582 503 589 l 368 438 q 535 440 469 440 q 554 432 546 440 q 563 413 563 424 q 554 393 563 401 q 535 385 546 385 q 351 381 467 385 l 249 22 q 236 6 246 11 q 215 3 226 0 q 199 15 204 6 q 196 36 193 25 l 293 379 q 119 375 186 375 q 100 383 108 375 q 92 403 92 392 q 100 422 92 414 q 119 431 108 431 q 307 435 188 431 q 246 572 278 493 q 100 576 163 569 q 81 587 88 578 q 75 608 74 596 q 85 626 76 619 q 106 632 94 633 z "},"":{"ha":349,"x_min":208,"x_max":285,"o":"m 264 825 q 265 663 264 771 q 265 500 265 554 q 257 481 265 489 q 238 472 249 472 q 218 481 226 472 q 210 500 210 489 q 209 663 210 554 q 208 825 208 771 q 217 844 208 836 q 236 853 225 853 q 256 844 247 853 q 264 825 264 836 m 279 257 q 281 93 276 203 q 283 -75 285 -21 q 275 -94 283 -86 q 255 -101 267 -101 q 235 -93 243 -101 q 228 -72 228 -85 q 225 92 229 -21 q 224 260 221 201 q 233 278 224 271 q 253 286 242 286 q 272 277 264 286 q 279 257 279 268 z "},"":{"ha":461,"x_min":51,"x_max":408,"o":"m 299 775 q 272 867 299 838 q 211 896 246 897 q 146 862 176 894 q 111 768 115 829 q 128 703 108 729 q 153 683 135 693 q 171 674 156 682 q 193 663 185 668 q 240 633 229 640 q 283 603 250 626 q 330 563 315 579 q 363 519 344 546 q 392 463 382 492 q 393 374 408 413 q 344 308 382 343 q 393 168 399 251 q 347 74 389 110 q 247 36 304 39 q 141 67 190 33 q 74 169 92 101 q 76 190 71 181 q 93 203 82 200 q 114 200 104 206 q 126 183 124 194 q 173 112 140 135 q 244 92 206 89 q 309 115 283 93 q 338 171 335 138 q 316 257 342 225 q 235 319 290 289 q 139 375 149 367 q 67 465 82 414 q 65 536 57 497 q 90 607 72 575 q 118 640 103 626 q 83 669 96 653 q 56 774 51 711 q 106 901 61 853 q 210 951 150 950 q 313 905 271 953 q 354 775 354 857 q 346 756 354 764 q 326 747 338 747 q 307 756 315 747 q 299 775 299 764 m 192 597 q 164 604 176 608 q 138 578 151 599 q 119 526 125 556 q 119 482 114 497 q 169 419 129 449 l 263 368 q 301 343 286 354 q 306 349 304 346 q 342 393 333 375 q 339 446 349 414 q 290 524 325 490 q 197 593 256 557 q 192 597 194 594 z "},"":{"ha":303,"x_min":32,"x_max":238,"o":"m 79 929 q 83 925 79 929 q 88 910 88 921 q 79 890 88 899 q 60 882 71 882 q 40 890 49 882 q 32 910 32 899 q 40 929 32 921 q 60 938 49 938 q 79 929 71 938 m 229 922 q 233 918 229 922 q 238 903 238 914 q 229 883 238 892 q 210 875 221 875 q 190 883 199 875 q 182 903 182 892 q 190 922 182 914 q 210 931 199 931 q 229 922 221 931 z "},"":{"ha":644,"x_min":47,"x_max":603,"o":"m 343 972 q 367 971 354 976 q 505 828 449 925 q 582 622 561 732 q 596 399 603 511 q 504 110 583 217 q 263 14 411 -15 q 90 199 142 39 q 65 517 47 332 q 144 825 82 697 q 322 979 218 974 q 343 972 333 979 m 325 924 q 194 800 253 919 q 121 513 136 682 q 143 217 104 338 q 274 69 185 88 q 460 143 388 46 q 540 402 529 238 q 497 715 551 567 q 339 921 443 864 q 333 925 336 924 q 325 924 329 924 m 347 589 q 331 657 350 640 q 319 660 326 661 q 283 632 304 656 q 231 514 249 596 q 221 376 215 439 q 251 294 225 326 q 308 258 278 263 q 356 276 336 254 q 389 374 383 307 q 399 392 390 385 q 419 399 407 400 q 438 389 431 397 q 444 368 446 381 q 397 239 438 283 q 300 204 357 196 q 210 258 249 211 q 165 371 171 304 q 176 525 158 442 q 242 671 197 622 q 306 713 275 706 q 367 699 340 722 q 403 586 406 665 q 394 567 403 575 q 374 560 385 560 q 355 569 363 560 q 347 589 347 578 z "},"":{"ha":474,"x_min":47,"x_max":443,"o":"m 356 876 q 319 915 346 913 q 225 875 279 921 q 136 752 165 826 q 133 610 107 678 q 171 565 147 574 q 225 569 193 557 q 286 610 257 582 q 328 667 315 638 q 356 819 351 721 l 356 847 l 356 868 l 356 874 l 356 876 m 374 636 q 320 566 356 599 q 246 518 285 533 q 153 513 194 499 q 81 590 104 531 q 83 769 47 678 q 189 918 119 860 q 326 971 263 979 q 388 935 364 965 q 415 857 411 906 q 414 847 415 851 q 425 703 418 810 q 442 531 432 592 q 436 510 443 519 q 418 499 429 500 q 397 504 407 497 q 386 522 388 511 q 374 636 379 571 z "},"":{"ha":563,"x_min":21,"x_max":500,"o":"m 296 582 q 172 481 267 560 q 100 417 126 442 q 82 399 88 406 q 101 360 92 374 q 157 296 122 332 q 276 189 196 258 q 286 170 285 182 q 280 150 288 158 q 260 140 272 142 q 240 147 249 139 q 118 257 158 217 q 57 328 79 296 q 22 399 26 368 q 25 417 21 408 q 29 424 26 419 q 38 433 32 428 q 63 457 46 443 q 136 522 89 482 q 263 626 235 606 q 283 631 272 633 q 301 620 294 629 q 306 600 308 611 q 296 582 304 589 m 469 558 l 364 474 q 307 419 326 440 q 292 400 296 407 l 290 399 l 293 394 q 313 369 300 385 q 321 360 317 365 l 329 350 q 337 342 333 346 q 342 336 340 339 l 343 335 q 488 194 414 249 q 499 176 497 188 q 493 156 500 165 q 475 144 486 146 q 454 150 464 143 q 301 299 375 208 q 299 301 300 299 q 294 306 297 303 q 288 314 292 310 q 279 324 283 318 l 271 335 q 249 363 257 351 q 240 376 243 371 q 233 396 233 386 q 244 429 232 411 q 265 457 251 442 q 328 515 288 481 q 436 603 363 546 q 456 608 444 610 q 475 598 468 607 q 481 577 482 589 q 469 558 479 565 z "},"":{"ha":592,"x_min":31,"x_max":529,"o":"m 58 463 q 285 494 79 463 l 422 514 q 468 519 453 518 q 483 521 478 521 l 490 521 q 507 515 500 521 q 524 488 518 506 q 526 460 525 476 q 528 393 529 435 q 519 281 525 335 q 509 262 518 269 q 489 256 500 254 q 470 266 478 257 q 464 286 463 275 q 472 394 469 339 q 471 457 474 433 l 471 464 q 429 460 456 463 q 293 439 390 454 q 58 407 83 407 q 39 415 47 407 q 31 435 31 424 q 39 454 31 446 q 58 463 47 463 z "},"":{"ha":639,"x_min":42,"x_max":596,"o":"m 332 967 q 356 965 343 971 q 495 823 439 919 q 574 615 551 726 q 589 392 596 504 q 500 103 578 211 q 260 7 407 -22 q 88 190 142 32 q 57 506 42 324 q 132 814 71 685 q 310 974 204 963 q 332 967 322 975 m 275 661 q 276 551 275 649 q 349 597 329 571 q 363 642 368 624 q 352 657 361 650 q 324 668 343 664 q 275 661 304 672 m 347 525 q 356 521 351 522 q 408 449 390 499 q 422 397 417 425 q 431 326 426 368 q 435 279 435 283 q 429 259 436 268 q 410 249 422 250 q 390 254 399 247 q 379 274 381 261 q 375 322 378 283 q 368 385 372 361 q 356 429 364 410 q 326 473 344 461 q 276 479 307 485 q 268 267 276 354 q 258 248 267 256 q 238 242 249 240 q 219 252 226 243 q 213 272 211 261 q 219 372 217 317 q 221 456 221 428 q 220 561 221 483 q 219 650 219 639 q 208 661 213 654 q 207 682 203 671 q 221 699 211 693 l 222 700 q 247 714 231 714 q 256 713 251 714 q 359 716 313 732 q 417 656 406 700 q 408 585 426 619 q 347 525 389 551 m 315 918 q 182 789 240 911 q 113 501 126 671 q 139 208 99 329 q 271 63 182 81 q 454 136 383 39 q 533 394 524 231 q 488 709 543 560 q 328 915 433 858 q 322 919 325 918 q 315 918 319 918 z "},"":{"ha":588,"x_min":21,"x_max":524,"o":"m 49 917 q 183 924 115 917 q 354 947 250 931 q 490 968 458 964 q 512 963 503 969 q 522 944 521 956 q 517 923 524 932 q 499 913 510 914 l 364 892 q 188 868 258 875 q 49 861 118 861 q 29 869 38 861 q 21 889 21 878 q 29 908 21 900 q 49 917 38 917 z "},"":{"ha":368,"x_min":-31,"x_max":318,"o":"m 174 925 q 102 883 136 919 q 49 789 68 846 q 33 665 26 724 q 75 585 40 607 q 153 583 108 563 q 232 664 201 607 q 257 744 253 703 q 242 835 261 786 q 176 924 222 883 q 174 925 175 925 m 232 947 q 299 841 279 899 q 311 733 318 783 q 281 638 306 683 q 178 533 242 565 q 44 538 104 499 q -22 658 -11 575 q -4 808 -31 729 q 81 940 24 888 q 210 981 138 992 q 228 969 221 978 q 233 949 235 960 q 232 947 233 947 z "},"":{"ha":511,"x_min":74,"x_max":449,"o":"m 217 513 q 106 493 157 499 q 85 499 94 492 q 75 518 76 507 q 81 538 74 529 q 100 549 89 547 q 210 568 151 554 q 201 707 204 624 q 209 728 201 719 q 228 736 217 736 q 249 728 240 736 q 257 710 257 721 q 265 582 260 632 l 389 615 q 410 613 400 618 q 422 596 419 607 q 419 575 425 585 q 403 563 414 565 l 343 544 q 271 526 297 532 q 296 413 281 465 q 294 391 300 401 q 278 377 289 381 q 256 379 267 374 q 243 396 246 385 q 217 513 226 451 m 103 311 q 199 317 150 311 q 316 334 249 322 q 415 350 383 346 q 437 344 428 351 q 447 326 446 338 q 442 305 449 314 q 424 294 435 296 l 326 279 q 205 262 257 268 q 103 256 153 256 q 83 264 92 256 q 75 283 75 272 q 83 303 75 294 q 103 311 92 311 z "},"":{"ha":514,"x_min":31,"x_max":451,"o":"m 81 843 q 144 922 97 888 q 242 968 190 956 q 343 961 300 981 q 407 875 396 938 q 331 675 419 800 q 197 514 297 628 q 131 446 168 481 l 174 446 q 246 449 203 447 q 294 450 289 450 q 424 451 401 451 q 443 443 435 451 q 451 424 451 435 q 443 404 451 413 q 424 396 435 396 q 294 394 401 396 q 247 393 290 394 q 175 390 204 392 q 101 392 129 390 q 74 394 85 393 q 47 403 56 397 q 33 425 35 411 q 40 449 31 438 q 56 461 46 456 q 65 465 61 464 q 69 467 68 467 l 71 468 q 156 550 122 513 q 285 707 250 658 q 351 867 361 814 q 321 911 346 900 q 254 914 294 922 q 178 878 213 904 q 133 824 143 853 q 119 808 129 813 q 97 807 108 803 q 81 822 86 811 q 81 843 76 832 z "},"":{"ha":450,"x_min":-28,"x_max":410,"o":"m 67 822 q 115 878 81 847 q 190 931 150 908 q 276 963 238 957 q 358 936 329 969 q 343 789 410 881 q 253 694 307 740 l 247 690 q 282 682 265 688 q 342 644 315 669 q 381 585 369 619 q 349 471 401 519 q 233 411 310 436 q 4 369 143 383 q -16 376 -7 368 q -26 394 -25 383 q -20 415 -28 406 q -1 425 -12 424 q 217 465 132 438 q 310 513 282 485 q 328 568 338 538 q 263 629 314 610 q 207 632 242 638 q 131 628 154 624 l 122 631 q 107 646 111 635 q 111 674 100 661 q 119 681 114 678 q 133 688 124 685 l 153 694 q 217 736 183 710 q 299 821 268 779 q 317 900 338 876 q 283 907 307 910 q 218 882 256 903 q 153 838 182 863 q 117 797 125 813 q 100 783 111 786 q 78 785 89 779 q 65 801 68 790 q 67 822 61 813 z "},"":{"ha":272,"x_min":21,"x_max":213,"o":"m 200 1019 q 124 940 153 982 q 78 840 96 899 q 65 824 75 829 q 43 822 54 818 q 26 835 32 825 q 25 857 21 846 q 78 972 46 924 q 167 1064 111 1021 q 187 1069 175 1071 q 206 1059 199 1068 q 211 1038 213 1050 q 200 1019 210 1026 z "},"":{"ha":546,"x_min":10,"x_max":482,"o":"m 403 132 q 438 81 415 113 q 476 26 468 39 q 480 6 482 17 q 468 -12 478 -6 q 447 -16 458 -18 q 429 -4 436 -14 q 393 49 422 7 l 368 83 q 280 2 329 24 q 179 -3 231 -19 q 76 79 121 17 q 65 -94 68 -14 q 56 -113 65 -106 q 36 -121 47 -121 q 17 -112 25 -121 q 10 -92 10 -103 q 43 309 15 50 q 78 658 71 568 q 88 677 79 669 q 108 683 96 685 q 127 674 119 682 q 133 653 135 665 q 107 382 126 560 q 86 181 88 204 l 89 175 q 136 94 107 128 q 197 50 165 61 q 324 117 267 26 q 367 206 350 157 q 389 320 383 256 q 396 425 394 385 q 395 547 397 465 q 393 654 393 628 q 401 674 393 665 q 421 682 410 682 q 440 674 432 682 q 449 654 449 665 q 450 561 449 629 q 451 451 451 493 q 447 348 451 408 q 431 235 443 288 q 399 138 418 183 q 403 132 401 136 z "},"":{"ha":611,"x_min":21,"x_max":590,"o":"m 372 476 q 517 467 425 467 q 525 774 525 658 q 422 874 499 850 q 403 878 413 876 q 388 668 401 815 q 372 476 375 538 m 318 490 q 332 674 321 551 q 347 882 346 831 q 239 857 292 881 q 115 742 142 815 q 167 578 85 661 q 311 493 217 528 l 318 490 m 581 731 q 570 396 579 629 q 561 38 561 163 q 553 18 561 26 q 533 10 544 10 q 514 18 522 10 q 506 38 506 26 q 515 411 506 164 q 372 419 425 411 q 372 222 371 401 q 372 25 372 43 q 364 6 372 14 q 344 -3 356 -3 q 325 6 333 -3 q 317 25 317 14 q 316 228 317 35 q 317 432 315 422 l 292 440 q 128 539 186 479 q 63 761 21 647 q 122 847 81 808 q 217 908 163 885 q 439 926 333 958 q 567 818 526 900 q 581 794 581 811 l 581 782 q 588 756 585 769 q 581 731 590 742 z "},"":{"ha":147,"x_min":26,"x_max":82,"o":"m 74 569 q 78 565 74 569 q 82 550 82 561 q 74 531 82 539 q 54 522 65 522 q 35 531 43 522 q 26 550 26 539 q 35 569 26 561 q 54 578 43 578 q 74 569 65 578 z "},"":{"ha":175,"x_min":-40,"x_max":113,"o":"m 110 35 q 7 -128 83 -65 q -14 -133 -3 -135 q -33 -123 -25 -132 q -39 -103 -40 -114 q -29 -83 -37 -92 q 57 49 35 -33 q 69 65 60 60 q 90 68 79 71 q 107 56 101 65 q 110 35 113 46 z "},"":{"ha":333,"x_min":204,"x_max":268,"o":"m 260 931 q 268 457 268 688 q 260 438 268 446 q 240 429 251 429 q 221 438 229 429 q 213 457 213 446 q 204 928 213 688 q 212 949 204 940 q 231 957 219 957 q 251 949 243 957 q 260 931 260 942 z "},"":{"ha":464,"x_min":97,"x_max":414,"o":"m 264 893 q 179 792 206 861 q 163 647 153 722 q 206 540 171 576 q 282 524 236 507 q 338 588 318 536 q 353 708 357 639 q 323 824 347 772 q 264 893 299 875 m 242 944 q 271 951 254 957 q 367 861 332 929 q 407 713 401 793 q 390 568 414 631 q 301 471 361 493 q 165 503 221 442 q 107 640 118 551 q 129 814 97 728 q 236 942 161 900 l 242 944 z "},"":{"ha":574,"x_min":19,"x_max":514,"o":"m 50 183 q 164 296 75 206 q 229 365 208 340 q 247 386 242 378 q 222 422 240 401 q 161 481 200 447 q 33 575 111 522 q 22 593 24 582 q 26 614 19 604 q 43 626 32 624 q 64 622 54 628 q 197 522 143 568 q 265 458 239 486 q 306 389 299 419 q 304 372 307 381 q 300 365 303 368 q 293 354 297 360 l 271 328 q 203 257 250 304 q 86 142 113 165 q 67 135 78 135 q 48 144 56 135 q 40 164 40 153 q 50 183 40 175 m 254 208 q 371 303 311 251 q 436 363 414 339 q 453 381 447 374 q 428 411 444 392 q 365 471 404 436 q 243 572 299 531 q 232 590 233 579 q 238 611 231 601 q 256 622 244 621 q 276 617 267 624 q 403 513 335 574 q 469 449 443 476 q 508 390 501 413 q 500 351 514 372 q 476 324 492 339 q 407 260 451 297 q 288 164 346 208 q 267 158 278 157 q 249 169 256 160 q 243 190 242 179 q 254 208 244 201 z "},"":{"ha":828,"x_min":149,"x_max":768,"o":"m 264 911 q 264 588 250 760 q 258 567 265 575 q 238 557 250 558 q 218 563 226 556 q 208 582 210 571 q 208 917 194 760 q 218 935 210 928 q 238 942 226 943 q 258 932 250 940 q 264 911 265 924 m 153 150 q 601 933 288 600 q 622 942 610 942 q 642 934 633 942 q 650 915 650 926 q 643 894 650 903 q 206 133 338 572 q 192 117 203 122 q 171 115 182 111 q 154 128 160 118 q 153 150 149 139 m 636 532 q 642 318 635 422 q 736 324 711 321 q 757 317 749 325 q 767 298 765 310 q 760 278 768 286 q 742 268 753 269 q 646 263 715 267 q 661 142 651 201 q 656 121 663 131 q 638 110 649 111 q 617 115 626 108 q 606 133 607 122 q 590 260 596 208 q 557 258 574 260 q 450 257 490 257 q 413 258 426 257 q 399 260 404 258 l 390 263 q 376 274 382 267 q 374 308 367 290 q 386 325 378 317 q 397 335 393 332 q 399 336 397 336 q 471 574 454 433 q 481 593 472 586 q 502 599 490 600 q 521 588 514 597 q 526 568 528 579 q 449 313 508 419 l 450 313 q 556 314 489 313 q 586 315 571 315 q 581 532 579 421 q 589 552 581 544 q 609 560 597 560 q 628 551 621 560 q 636 532 636 543 z "},"":{"ha":831,"x_min":149,"x_max":769,"o":"m 264 911 q 264 588 250 760 q 258 567 265 575 q 238 557 250 558 q 218 563 226 556 q 208 582 210 571 q 208 917 194 760 q 218 935 210 928 q 238 942 226 943 q 258 932 250 940 q 264 911 265 924 m 153 150 q 601 933 288 600 q 622 942 610 942 q 642 934 633 942 q 650 915 650 926 q 643 894 650 903 q 206 133 338 572 q 192 117 203 122 q 171 115 182 111 q 154 128 160 118 q 153 150 149 139 m 446 468 q 508 519 468 497 q 588 543 549 540 q 663 517 638 547 q 678 421 692 483 q 586 267 661 350 q 526 203 576 254 q 486 158 501 176 q 557 161 508 160 q 742 167 725 167 q 761 158 753 167 q 769 139 769 150 q 761 119 769 128 q 742 111 753 111 q 560 106 718 111 q 472 103 500 103 q 443 104 453 103 l 432 104 q 425 107 428 106 q 410 118 415 110 q 419 167 394 143 q 428 175 421 169 l 431 178 q 486 242 450 203 q 544 304 535 292 q 622 432 610 376 q 621 481 631 468 q 592 488 613 490 q 535 470 565 486 q 490 435 504 454 q 472 424 483 425 q 451 429 460 422 q 440 448 442 436 q 446 468 439 460 z "},"":{"ha":828,"x_min":-10,"x_max":768,"o":"m 153 150 q 601 933 288 600 q 622 942 610 942 q 642 934 633 942 q 650 915 650 926 q 643 894 650 903 q 206 133 338 572 q 192 117 203 122 q 171 115 182 111 q 154 128 160 118 q 153 150 149 139 m 636 532 q 642 318 635 422 q 736 324 711 321 q 757 317 749 325 q 767 298 765 310 q 760 278 768 286 q 742 268 753 269 q 646 263 715 267 q 661 142 651 201 q 656 121 663 131 q 638 110 649 111 q 617 115 626 108 q 606 133 607 122 q 590 260 596 208 q 557 258 574 260 q 450 257 490 257 q 413 258 426 257 q 399 260 404 258 l 390 263 q 376 274 382 267 q 374 308 367 290 q 386 325 378 317 q 397 335 393 332 q 399 336 397 336 q 471 574 454 433 q 481 593 472 586 q 502 599 490 600 q 521 588 514 597 q 526 568 528 579 q 449 313 508 419 l 450 313 q 556 314 489 313 q 586 315 571 315 q 581 532 579 421 q 589 552 581 544 q 609 560 597 560 q 628 551 621 560 q 636 532 636 543 m 56 851 q 80 910 58 881 q 129 957 101 940 q 197 974 164 978 q 258 925 236 967 q 240 819 286 872 q 193 776 225 801 q 267 719 250 760 q 274 607 294 657 q 204 538 256 561 q 106 517 161 517 q 8 540 51 518 q -6 557 -3 546 q -4 578 -10 568 q 13 592 1 589 q 33 590 24 596 q 107 573 65 574 q 181 588 149 572 q 222 628 213 603 q 217 697 235 657 q 169 726 208 715 q 139 732 157 729 q 133 733 138 732 q 128 733 129 733 q 122 735 125 735 q 118 736 121 736 q 106 746 110 739 q 99 768 99 756 q 107 788 100 778 q 124 800 113 794 l 136 806 l 140 807 q 199 856 188 843 q 208 900 219 881 q 188 918 200 917 q 158 910 176 921 q 126 879 140 899 q 111 846 113 860 q 101 827 110 835 q 81 821 92 819 q 62 831 69 822 q 56 851 54 840 z "},"":{"ha":449,"x_min":-18,"x_max":401,"o":"m 399 353 q 347 219 401 292 q 231 113 299 156 q 94 69 156 65 q -3 161 17 75 q 21 308 -18 222 q 107 460 31 329 q 189 635 163 556 q 199 799 215 715 q 203 819 197 810 q 221 831 210 829 q 242 827 232 833 q 254 810 251 821 q 243 622 272 711 q 154 431 214 533 q 72 285 79 303 q 50 172 40 217 q 99 125 61 128 q 201 159 140 121 q 303 253 261 197 q 343 350 344 310 q 351 371 343 363 q 370 379 358 379 q 390 372 382 379 q 399 353 399 364 m 233 967 q 238 963 233 967 q 242 947 242 958 q 233 928 242 936 q 214 919 225 919 q 194 928 203 919 q 186 947 186 936 q 194 967 186 958 q 214 975 203 975 q 233 967 225 975 z "},"":{"ha":694,"x_min":74,"x_max":636,"o":"m 217 342 q 492 346 292 346 l 419 643 q 404 708 417 653 q 385 797 394 757 l 368 867 q 356 829 361 847 q 286 590 333 749 q 217 342 256 488 m 78 35 l 151 308 q 233 607 197 488 l 303 843 q 326 918 311 878 q 335 943 331 933 l 339 951 q 340 956 339 954 q 343 960 342 958 l 349 965 q 383 964 367 978 q 401 936 393 956 q 415 901 408 922 q 439 811 426 868 l 460 721 q 472 657 471 667 q 520 463 489 594 q 578 229 551 331 q 632 38 604 128 q 631 16 636 26 q 614 2 625 6 q 592 4 603 -1 q 579 21 582 10 q 506 290 544 133 l 501 290 q 203 286 278 290 q 131 21 154 103 q 117 3 128 10 q 97 1 107 -3 q 80 15 86 4 q 78 35 74 25 m 331 1135 q 349 1117 340 1126 l 360 1107 q 367 1101 361 1106 q 374 1095 372 1096 q 385 1086 375 1094 q 404 1071 394 1078 q 415 1052 414 1064 q 410 1031 417 1040 q 391 1021 403 1022 q 371 1026 379 1019 l 349 1043 q 338 1052 339 1051 q 330 1058 336 1053 q 322 1065 324 1064 l 311 1076 l 292 1096 q 283 1115 283 1103 q 291 1135 283 1126 q 310 1143 299 1143 q 331 1135 322 1143 z "},"":{"ha":694,"x_min":74,"x_max":636,"o":"m 217 342 q 492 346 292 346 l 419 643 q 404 708 417 653 q 385 797 394 757 l 368 867 q 356 829 361 847 q 286 590 333 749 q 217 342 256 488 m 78 35 l 151 308 q 233 607 197 488 l 303 843 q 326 918 311 878 q 335 943 331 933 l 339 951 q 340 956 339 954 q 343 960 342 958 l 349 965 q 383 964 367 978 q 401 936 393 956 q 415 901 408 922 q 439 811 426 868 l 460 721 q 472 657 471 667 q 520 463 489 594 q 578 229 551 331 q 632 38 604 128 q 631 16 636 26 q 614 2 625 6 q 592 4 603 -1 q 579 21 582 10 q 506 290 544 133 l 501 290 q 203 286 278 290 q 131 21 154 103 q 117 3 128 10 q 97 1 107 -3 q 80 15 86 4 q 78 35 74 25 m 307 1060 l 388 1139 q 407 1147 396 1147 q 426 1139 418 1147 q 435 1119 435 1131 q 426 1100 435 1108 l 346 1021 q 326 1013 338 1013 q 307 1021 315 1013 q 299 1040 299 1029 q 307 1060 299 1051 z "},"":{"ha":694,"x_min":74,"x_max":636,"o":"m 217 342 q 492 346 292 346 l 419 643 q 404 708 417 653 q 385 797 394 757 l 368 867 q 356 829 361 847 q 286 590 333 749 q 217 342 256 488 m 78 35 l 151 308 q 233 607 197 488 l 303 843 q 326 918 311 878 q 335 943 331 933 l 339 951 q 340 956 339 954 q 343 960 342 958 l 349 965 q 383 964 367 978 q 401 936 393 956 q 415 901 408 922 q 439 811 426 868 l 460 721 q 472 657 471 667 q 520 463 489 594 q 578 229 551 331 q 632 38 604 128 q 631 16 636 26 q 614 2 625 6 q 592 4 603 -1 q 579 21 582 10 q 506 290 544 133 l 501 290 q 203 286 278 290 q 131 21 154 103 q 117 3 128 10 q 97 1 107 -3 q 80 15 86 4 q 78 35 74 25 m 254 1040 l 288 1090 q 308 1125 306 1119 q 331 1153 321 1143 q 363 1171 346 1168 q 426 1133 394 1176 q 492 1029 444 1108 q 494 1008 497 1019 q 482 992 492 997 q 461 989 472 986 q 444 1001 450 992 q 382 1100 399 1078 q 371 1114 375 1108 q 354 1093 364 1108 q 333 1059 351 1089 q 299 1010 314 1029 q 281 998 293 1000 q 260 1002 269 996 q 249 1020 251 1008 q 254 1040 247 1032 z "},"":{"ha":694,"x_min":74,"x_max":636,"o":"m 217 342 q 492 346 292 346 l 419 643 q 404 708 417 653 q 385 797 394 757 l 368 867 q 356 829 361 847 q 286 590 333 749 q 217 342 256 488 m 426 1074 q 428 1072 426 1072 l 426 1074 m 78 35 l 151 308 q 233 607 197 488 l 303 843 q 326 918 311 878 q 335 943 331 933 l 339 951 q 340 956 339 954 q 343 960 342 958 l 349 965 q 383 964 367 978 q 401 936 393 956 q 415 901 408 922 q 439 811 426 868 l 460 721 q 472 657 471 667 q 520 463 489 594 q 578 229 551 331 q 632 38 604 128 q 631 16 636 26 q 614 2 625 6 q 592 4 603 -1 q 579 21 582 10 q 506 290 544 133 l 501 290 q 203 286 278 290 q 131 21 154 103 q 117 3 128 10 q 97 1 107 -3 q 80 15 86 4 q 78 35 74 25 m 249 1040 q 282 1104 258 1081 q 365 1125 317 1140 q 410 1094 390 1117 q 421 1081 414 1090 q 425 1075 422 1079 q 454 1103 435 1082 q 474 1111 463 1111 q 494 1103 486 1111 q 503 1084 503 1096 q 496 1064 503 1072 q 442 1022 463 1031 q 389 1033 411 1011 q 376 1047 383 1038 q 368 1058 371 1056 q 349 1072 358 1069 q 321 1065 332 1078 q 301 1026 308 1053 q 289 1010 299 1015 q 268 1007 279 1004 q 251 1019 257 1010 q 249 1040 246 1029 z "},"":{"ha":694,"x_min":74,"x_max":636,"o":"m 217 342 q 492 346 292 346 l 419 643 q 404 708 417 653 q 385 797 394 757 l 368 867 q 356 829 361 847 q 286 590 333 749 q 217 342 256 488 m 78 35 l 151 308 q 233 607 197 488 l 303 843 q 326 918 311 878 q 335 943 331 933 l 339 951 q 340 956 339 954 q 343 960 342 958 l 349 965 q 383 964 367 978 q 401 936 393 956 q 415 901 408 922 q 439 811 426 868 l 460 721 q 472 657 471 667 q 520 463 489 594 q 578 229 551 331 q 632 38 604 128 q 631 16 636 26 q 614 2 625 6 q 592 4 603 -1 q 579 21 582 10 q 506 290 544 133 l 501 290 q 203 286 278 290 q 131 21 154 103 q 117 3 128 10 q 97 1 107 -3 q 80 15 86 4 q 78 35 74 25 m 333 1082 q 338 1078 333 1082 q 342 1063 342 1074 q 333 1043 342 1051 q 314 1035 325 1035 q 294 1043 303 1035 q 286 1063 286 1051 q 294 1082 286 1074 q 314 1090 303 1090 q 333 1082 325 1090 m 457 1083 q 461 1079 457 1083 q 465 1064 465 1075 q 457 1044 465 1053 q 438 1036 449 1036 q 418 1044 426 1036 q 410 1064 410 1053 q 418 1083 410 1075 q 438 1092 426 1092 q 457 1083 449 1092 z "},"":{"ha":694,"x_min":74,"x_max":636,"o":"m 217 342 q 492 346 292 346 l 419 643 q 404 708 417 653 q 385 797 394 757 l 368 867 q 356 829 361 847 q 286 590 333 749 q 217 342 256 488 m 432 1019 q 421 1007 428 1013 q 331 989 374 983 q 264 1025 289 994 q 251 1099 238 1058 q 314 1165 264 1139 q 409 1177 367 1190 q 471 1125 451 1164 q 465 1047 490 1083 q 432 1019 453 1031 m 78 35 l 151 308 q 233 607 197 488 l 303 843 q 326 918 311 878 q 335 943 331 933 l 339 951 q 340 956 339 954 q 343 960 342 958 l 349 965 q 383 964 367 978 q 401 936 393 956 q 415 901 408 922 q 439 811 426 868 l 460 721 q 472 657 471 667 q 520 463 489 594 q 578 229 551 331 q 632 38 604 128 q 631 16 636 26 q 614 2 625 6 q 592 4 603 -1 q 579 21 582 10 q 506 290 544 133 l 501 290 q 203 286 278 290 q 131 21 154 103 q 117 3 128 10 q 97 1 107 -3 q 80 15 86 4 q 78 35 74 25 m 372 1061 q 419 1079 408 1064 q 419 1101 426 1089 q 393 1124 413 1118 q 339 1115 374 1131 q 304 1082 310 1100 q 308 1060 300 1069 q 349 1043 321 1043 q 372 1061 356 1060 z "},"":{"ha":869,"x_min":42,"x_max":807,"o":"m 207 432 q 433 440 304 439 l 361 732 l 358 747 l 349 786 l 338 832 l 329 858 q 321 831 325 843 l 253 592 l 207 432 m 364 961 q 436 962 388 961 q 514 963 485 963 q 584 961 543 963 q 660 957 625 960 q 678 947 671 956 q 685 927 686 939 q 675 908 683 915 q 654 901 667 900 q 375 906 597 906 q 390 844 382 881 l 403 800 q 411 761 408 775 l 414 746 q 490 440 439 656 l 599 440 l 692 440 q 711 432 703 440 q 719 413 719 424 q 711 393 719 401 q 692 385 703 385 l 600 385 l 504 385 q 590 57 553 183 l 779 57 q 799 49 790 57 q 807 29 807 40 q 799 10 807 18 q 779 1 790 1 l 576 1 q 568 3 572 1 q 543 22 549 4 q 446 385 501 158 q 190 375 299 383 l 97 22 q 85 6 94 11 q 64 3 75 0 q 47 15 53 6 q 44 36 42 25 q 200 608 139 407 l 268 844 q 286 904 272 864 q 288 910 288 907 q 288 921 288 914 q 290 935 289 928 q 299 958 293 950 q 322 974 307 972 q 347 965 336 975 q 353 958 350 963 q 364 961 358 961 z "},"":{"ha":540,"x_min":-8,"x_max":476,"o":"m 347 751 q 314 849 339 804 q 257 913 289 894 q 201 918 228 931 q 132 843 164 903 q 54 572 72 732 q 60 288 36 414 q 134 101 79 158 q 249 51 189 43 q 360 133 310 61 q 419 329 411 206 q 429 349 421 342 q 449 356 438 357 q 469 346 461 354 q 475 326 476 338 q 404 99 465 188 q 257 -3 343 10 q 236 -6 246 -4 q 233 -10 235 -7 q 231 -15 232 -12 q 228 -18 229 -17 l 226 -19 l 225 -21 q 244 -47 229 -29 q 286 -99 279 -86 q 293 -139 297 -119 q 263 -174 288 -161 q 129 -196 226 -192 q 109 -188 118 -196 q 100 -169 100 -181 q 108 -149 100 -158 q 126 -140 115 -140 q 236 -124 213 -137 q 204 -85 233 -118 q 169 -21 171 -47 q 175 4 169 -8 q 67 98 113 26 q 4 279 21 169 q -8 476 -8 376 q 15 681 -8 575 q 82 868 39 788 q 179 969 125 947 q 286 961 232 993 q 360 879 329 935 q 403 760 392 824 q 397 740 404 749 q 379 728 390 731 q 359 733 368 726 q 347 751 350 740 z "},"":{"ha":514,"x_min":28,"x_max":449,"o":"m 57 972 q 238 970 117 971 q 422 967 360 969 q 441 958 433 967 q 449 938 449 950 q 440 919 449 926 q 419 911 432 911 q 245 915 358 914 q 83 915 132 915 l 83 531 q 240 530 136 529 q 394 529 343 531 q 415 521 407 529 q 422 501 422 513 q 414 481 422 489 q 394 474 406 474 q 238 474 342 475 q 83 475 135 474 l 83 53 q 408 50 207 50 q 428 42 419 50 q 436 22 436 33 q 428 3 436 11 q 408 -6 419 -6 q 56 -1 190 -6 q 38 6 46 -1 q 29 22 31 13 q 28 32 28 26 l 28 943 l 28 944 l 28 946 q 36 965 28 957 q 56 972 44 972 l 57 972 m 136 1126 q 225 1071 181 1089 q 240 1055 235 1065 q 240 1034 244 1044 q 224 1019 235 1024 q 203 1018 214 1014 q 100 1085 150 1040 q 90 1103 92 1092 q 97 1124 89 1115 q 116 1133 104 1132 q 136 1126 128 1135 z "},"":{"ha":514,"x_min":28,"x_max":449,"o":"m 57 972 q 238 970 117 971 q 422 967 360 969 q 441 958 433 967 q 449 938 449 950 q 440 919 449 926 q 419 911 432 911 q 245 915 358 914 q 83 915 132 915 l 83 531 q 240 530 136 529 q 394 529 343 531 q 415 521 407 529 q 422 501 422 513 q 414 481 422 489 q 394 474 406 474 q 238 474 342 475 q 83 475 135 474 l 83 53 q 408 50 207 50 q 428 42 419 50 q 436 22 436 33 q 428 3 436 11 q 408 -6 419 -6 q 56 -1 190 -6 q 38 6 46 -1 q 29 22 31 13 q 28 32 28 26 l 28 943 l 28 944 l 28 946 q 36 965 28 957 q 56 972 44 972 l 57 972 m 125 1049 q 243 1153 208 1125 q 263 1158 251 1160 q 282 1148 275 1157 q 288 1127 289 1139 q 276 1108 286 1115 q 164 1007 244 1083 q 144 1000 156 1000 q 124 1008 132 1000 q 117 1028 117 1017 q 125 1049 117 1040 z "},"":{"ha":514,"x_min":28,"x_max":449,"o":"m 57 972 q 238 970 117 971 q 422 967 360 969 q 441 958 433 967 q 449 938 449 950 q 440 919 449 926 q 419 911 432 911 q 245 915 358 914 q 83 915 132 915 l 83 531 q 240 530 136 529 q 394 529 343 531 q 415 521 407 529 q 422 501 422 513 q 414 481 422 489 q 394 474 406 474 q 238 474 342 475 q 83 475 135 474 l 83 53 q 408 50 207 50 q 428 42 419 50 q 436 22 436 33 q 428 3 436 11 q 408 -6 419 -6 q 56 -1 190 -6 q 38 6 46 -1 q 29 22 31 13 q 28 32 28 26 l 28 943 l 28 944 l 28 946 q 36 965 28 957 q 56 972 44 972 l 57 972 m 115 1053 l 150 1106 q 176 1146 169 1136 q 197 1172 188 1164 q 231 1188 213 1188 q 263 1171 247 1186 q 282 1147 271 1164 q 339 1068 325 1086 q 344 1048 346 1060 q 334 1029 343 1036 q 313 1024 325 1022 q 294 1035 301 1025 q 236 1115 281 1053 q 229 1125 232 1121 q 222 1115 226 1121 q 196 1075 215 1106 l 163 1022 q 144 1010 156 1013 q 124 1015 133 1008 q 112 1032 114 1021 q 115 1053 110 1043 z "},"":{"ha":514,"x_min":28,"x_max":449,"o":"m 57 972 q 238 970 117 971 q 422 967 360 969 q 441 958 433 967 q 449 938 449 950 q 440 919 449 926 q 419 911 432 911 q 245 915 358 914 q 83 915 132 915 l 83 531 q 240 530 136 529 q 394 529 343 531 q 415 521 407 529 q 422 501 422 513 q 414 481 422 489 q 394 474 406 474 q 238 474 342 475 q 83 475 135 474 l 83 53 q 408 50 207 50 q 428 42 419 50 q 436 22 436 33 q 428 3 436 11 q 408 -6 419 -6 q 56 -1 190 -6 q 38 6 46 -1 q 29 22 31 13 q 28 32 28 26 l 28 943 l 28 944 l 28 946 q 36 965 28 957 q 56 972 44 972 l 57 972 m 183 1106 q 188 1101 183 1106 q 192 1086 192 1097 q 183 1067 192 1075 q 164 1058 175 1058 q 144 1067 153 1058 q 136 1086 136 1075 q 144 1106 136 1097 q 164 1114 153 1114 q 183 1106 175 1114 m 311 1099 q 315 1094 311 1099 q 319 1079 319 1090 q 311 1060 319 1068 q 292 1051 303 1051 q 272 1060 281 1051 q 264 1079 264 1068 q 272 1099 264 1090 q 292 1107 281 1107 q 311 1099 303 1107 z "},"":{"ha":264,"x_min":24,"x_max":203,"o":"m 115 946 l 115 25 q 107 6 115 14 q 88 -3 99 -3 q 68 6 76 -3 q 60 25 60 14 l 60 946 q 68 965 60 957 q 88 974 76 974 q 107 965 99 974 q 115 946 115 957 m 68 1121 q 185 1058 78 1114 q 199 1042 196 1053 q 197 1020 203 1031 q 181 1006 192 1010 q 160 1008 169 1003 l 38 1074 q 26 1090 28 1079 q 29 1112 24 1101 q 46 1124 35 1122 q 68 1121 57 1126 z "},"":{"ha":249,"x_min":35,"x_max":186,"o":"m 115 946 l 115 25 q 107 6 115 14 q 88 -3 99 -3 q 68 6 76 -3 q 60 25 60 14 l 60 946 q 68 965 60 957 q 88 974 76 974 q 107 965 99 974 q 115 946 115 957 m 46 1074 q 92 1114 53 1079 q 142 1154 119 1140 q 162 1159 150 1161 q 180 1148 174 1157 q 184 1127 186 1139 q 172 1110 182 1115 q 128 1072 154 1096 q 82 1032 89 1038 q 61 1025 72 1024 q 42 1035 50 1026 q 36 1056 35 1044 q 46 1074 38 1067 z "},"":{"ha":271,"x_min":-18,"x_max":208,"o":"m 117 946 l 117 25 q 108 6 117 14 q 89 -3 100 -3 q 69 6 78 -3 q 61 25 61 14 l 61 946 q 69 965 61 957 q 89 974 78 974 q 108 965 100 974 q 117 946 117 957 m -12 1040 q 39 1115 26 1100 q 96 1144 67 1149 q 144 1110 117 1140 q 158 1093 149 1104 l 178 1069 q 200 1047 189 1058 q 208 1027 208 1039 q 200 1008 208 1015 q 180 1000 192 1000 q 161 1008 168 1000 q 139 1033 149 1021 l 118 1056 q 103 1072 108 1068 q 89 1088 93 1083 q 82 1079 86 1085 q 35 1010 72 1067 q 17 998 28 1000 q -4 1002 6 996 q -16 1019 -14 1008 q -12 1040 -18 1031 z "},"":{"ha":246,"x_min":1,"x_max":181,"o":"m 114 946 l 114 25 q 106 6 114 14 q 86 -3 97 -3 q 67 6 75 -3 q 58 25 58 14 l 58 946 q 67 965 58 957 q 86 974 75 974 q 106 965 97 974 q 114 946 114 957 m 49 1090 q 53 1086 49 1090 q 57 1071 57 1082 q 49 1051 57 1060 q 29 1043 40 1043 q 10 1051 18 1043 q 1 1071 1 1060 q 10 1090 1 1082 q 29 1099 18 1099 q 49 1090 40 1099 m 172 1090 q 176 1086 172 1090 q 181 1071 181 1082 q 172 1051 181 1060 q 153 1043 164 1043 q 133 1051 142 1043 q 125 1071 125 1060 q 133 1090 125 1082 q 153 1099 142 1099 q 172 1090 164 1099 z "},"":{"ha":606,"x_min":-62,"x_max":542,"o":"m 81 485 q 76 57 76 199 q 258 108 178 67 q 388 213 339 150 q 461 352 436 276 q 485 508 486 428 q 457 662 483 589 q 381 792 431 735 q 255 881 332 849 q 85 911 178 914 q 82 540 85 772 l 182 540 q 201 532 193 540 q 210 513 210 524 q 201 493 210 501 q 182 485 193 485 l 81 485 m 64 965 q 267 936 175 972 q 417 834 360 900 q 507 684 475 768 q 540 508 539 600 q 513 331 542 417 q 426 172 483 244 q 275 53 369 100 q 61 0 181 7 q 49 -3 56 -3 q 29 6 38 -3 q 21 25 21 14 q 25 485 21 176 l -35 485 q -54 493 -46 485 q -62 513 -62 501 q -54 532 -62 524 q -35 540 -46 540 l 26 540 q 29 938 29 790 q 38 957 29 949 q 57 965 46 965 l 61 965 l 64 965 z "},"":{"ha":593,"x_min":54,"x_max":529,"o":"m 114 706 q 110 26 110 49 q 101 7 110 15 q 82 -1 93 -1 q 63 7 71 -1 q 54 26 54 15 q 57 488 54 181 q 60 947 60 794 q 68 967 60 958 q 88 975 76 975 q 107 967 99 975 q 115 947 115 958 l 115 853 q 236 953 165 922 q 329 969 283 969 q 419 936 375 968 q 492 846 463 904 q 522 682 514 799 q 529 444 529 588 q 524 219 528 369 q 522 24 521 68 q 515 3 522 11 q 495 -6 507 -6 q 475 2 483 -6 q 467 21 467 10 q 469 219 465 67 q 474 446 472 371 q 468 678 474 589 q 442 821 460 785 q 388 890 419 867 q 324 914 356 914 q 258 901 292 914 q 165 826 204 878 q 117 713 125 774 q 114 706 115 710 m 167 1060 q 250 1099 207 1100 q 313 1076 274 1097 q 349 1064 338 1064 q 386 1090 364 1064 q 404 1100 393 1099 q 424 1094 415 1101 q 435 1075 433 1086 q 428 1054 436 1064 q 350 1008 392 1010 q 286 1028 325 1007 q 247 1043 258 1042 q 206 1021 228 1043 q 186 1013 197 1013 q 167 1021 175 1013 q 158 1040 158 1029 q 167 1060 158 1051 z "},"":{"ha":639,"x_min":42,"x_max":596,"o":"m 332 967 q 356 965 343 971 q 495 823 439 919 q 574 615 551 726 q 589 392 596 504 q 500 103 578 211 q 260 7 407 -22 q 88 190 142 32 q 57 506 42 324 q 132 814 71 685 q 310 974 204 963 q 332 967 322 975 m 315 918 q 182 789 240 911 q 113 501 126 671 q 139 208 99 329 q 271 63 182 81 q 454 136 383 39 q 533 394 524 231 q 488 709 543 560 q 328 915 433 858 q 322 919 325 918 q 315 918 319 918 m 244 1128 q 264 1110 254 1118 q 288 1094 274 1103 q 308 1082 303 1085 q 335 1067 314 1079 q 361 1054 356 1056 q 374 1038 371 1049 q 372 1016 378 1026 q 356 1002 367 1006 q 333 1004 344 999 q 313 1017 328 1008 q 290 1028 297 1025 q 270 1040 283 1032 q 248 1053 257 1047 q 228 1069 239 1060 l 206 1086 q 197 1106 197 1094 q 205 1126 197 1117 q 224 1135 213 1135 q 244 1128 235 1135 z "},"":{"ha":639,"x_min":42,"x_max":596,"o":"m 332 967 q 356 965 343 971 q 495 823 439 919 q 574 615 551 726 q 589 392 596 504 q 500 103 578 211 q 260 7 407 -22 q 88 190 142 32 q 57 506 42 324 q 132 814 71 685 q 310 974 204 963 q 332 967 322 975 m 315 918 q 182 789 240 911 q 113 501 126 671 q 139 208 99 329 q 271 63 182 81 q 454 136 383 39 q 533 394 524 231 q 488 709 543 560 q 328 915 433 858 q 322 919 325 918 q 315 918 319 918 m 229 1042 q 342 1132 244 1053 q 363 1138 351 1139 q 381 1127 374 1136 q 388 1107 389 1118 q 378 1088 386 1096 l 260 994 q 239 991 250 989 q 222 1003 228 993 q 217 1024 215 1013 q 229 1042 219 1035 z "},"":{"ha":639,"x_min":42,"x_max":596,"o":"m 332 967 q 356 965 343 971 q 495 823 439 919 q 574 615 551 726 q 589 392 596 504 q 500 103 578 211 q 260 7 407 -22 q 88 190 142 32 q 57 506 42 324 q 132 814 71 685 q 310 974 204 963 q 332 967 322 975 m 315 918 q 182 789 240 911 q 113 501 126 671 q 139 208 99 329 q 271 63 182 81 q 454 136 383 39 q 533 394 524 231 q 488 709 543 560 q 328 915 433 858 q 322 919 325 918 q 315 918 319 918 m 167 1019 q 224 1114 207 1092 q 285 1154 254 1154 q 349 1117 314 1154 q 418 1035 360 1106 q 425 1014 426 1025 q 415 995 424 1003 q 394 989 406 988 q 376 999 383 990 q 308 1079 314 1074 q 294 1092 300 1088 q 288 1099 289 1097 l 285 1099 l 275 1089 q 268 1081 272 1085 q 214 992 254 1061 q 197 979 208 982 q 176 982 186 976 q 164 999 167 988 q 167 1019 161 1010 z "},"":{"ha":639,"x_min":42,"x_max":596,"o":"m 332 967 q 356 965 343 971 q 495 823 439 919 q 574 615 551 726 q 589 392 596 504 q 500 103 578 211 q 260 7 407 -22 q 88 190 142 32 q 57 506 42 324 q 132 814 71 685 q 310 974 204 963 q 332 967 322 975 m 315 918 q 182 789 240 911 q 113 501 126 671 q 139 208 99 329 q 271 63 182 81 q 454 136 383 39 q 533 394 524 231 q 488 709 543 560 q 328 915 433 858 q 322 919 325 918 q 315 918 319 918 m 169 1063 q 267 1121 219 1122 q 338 1086 297 1119 q 372 1064 363 1064 q 424 1100 392 1063 q 442 1110 431 1108 q 463 1103 454 1111 q 472 1084 471 1096 q 465 1064 474 1072 q 369 1008 415 1004 q 301 1044 340 1010 q 265 1065 276 1065 q 211 1026 244 1067 q 192 1017 204 1018 q 172 1023 181 1015 q 163 1042 164 1031 q 169 1063 161 1054 z "},"":{"ha":639,"x_min":42,"x_max":596,"o":"m 332 967 q 356 965 343 971 q 495 823 439 919 q 574 615 551 726 q 589 392 596 504 q 500 103 578 211 q 260 7 407 -22 q 88 190 142 32 q 57 506 42 324 q 132 814 71 685 q 310 974 204 963 q 332 967 322 975 m 315 918 q 182 789 240 911 q 113 501 126 671 q 139 208 99 329 q 271 63 182 81 q 454 136 383 39 q 533 394 524 231 q 488 709 543 560 q 328 915 433 858 q 322 919 325 918 q 315 918 319 918 m 272 1088 q 276 1083 272 1088 q 281 1068 281 1079 q 272 1049 281 1057 q 253 1040 264 1040 q 233 1049 242 1040 q 225 1068 225 1057 q 233 1088 225 1079 q 253 1096 242 1096 q 272 1088 264 1096 m 386 1079 q 390 1075 386 1079 q 394 1060 394 1071 q 386 1040 394 1049 q 367 1032 378 1032 q 347 1040 356 1032 q 339 1060 339 1049 q 347 1079 339 1071 q 367 1088 356 1088 q 386 1079 378 1088 z "},"":{"ha":636,"x_min":185,"x_max":572,"o":"m 379 297 l 232 144 q 213 136 224 136 q 193 144 201 136 q 185 164 185 153 q 193 183 185 175 l 342 339 l 228 468 q 221 488 219 476 q 231 508 222 500 q 251 514 239 515 q 269 504 263 513 l 379 379 l 514 521 q 534 529 522 529 q 554 522 546 529 q 563 502 563 514 q 556 482 563 490 l 417 338 q 561 199 494 256 q 571 180 569 192 q 565 160 572 168 q 545 150 557 151 q 525 157 533 149 q 379 297 457 214 z "},"":{"ha":639,"x_min":42,"x_max":596,"o":"m 526 558 q 335 391 433 494 q 151 176 236 288 q 271 63 194 78 q 454 136 383 39 q 533 396 524 231 q 526 558 538 476 m 92 175 q 88 190 89 182 q 57 506 42 322 q 132 814 71 685 q 310 974 204 963 q 332 967 322 975 q 356 965 343 971 q 495 823 439 919 q 574 615 551 726 q 589 392 596 504 q 500 103 578 211 q 260 7 407 -22 q 96 167 150 31 q 92 175 93 171 m 315 918 q 182 789 240 911 q 113 501 125 669 q 131 240 100 354 q 515 617 338 504 q 444 799 493 721 q 328 915 396 878 q 322 919 325 918 q 315 918 319 918 z "},"":{"ha":563,"x_min":54,"x_max":501,"o":"m 117 940 q 113 608 110 790 q 138 279 115 426 q 182 121 153 176 q 226 68 201 83 q 293 61 254 51 q 383 182 347 76 q 432 442 415 276 q 442 593 439 515 q 446 726 446 676 q 445 853 446 776 q 444 938 444 931 q 453 957 444 949 q 472 965 461 965 q 492 957 483 965 q 500 938 500 949 q 501 853 500 932 q 501 723 501 774 q 497 588 500 672 q 488 436 494 504 q 436 164 472 265 q 307 8 390 29 q 199 21 246 -8 q 132 96 160 43 q 82 271 99 160 q 58 607 61 421 q 61 940 54 793 q 69 960 61 953 q 90 968 78 968 q 109 960 101 968 q 117 940 117 951 m 236 1090 q 357 1019 299 1050 q 370 1003 367 1014 q 368 981 374 992 q 351 967 363 971 q 329 969 340 964 l 206 1043 q 194 1061 196 1050 q 198 1082 192 1072 q 215 1094 204 1092 q 236 1090 226 1096 z "},"":{"ha":563,"x_min":54,"x_max":501,"o":"m 117 940 q 113 608 110 790 q 138 279 115 426 q 182 121 153 176 q 226 68 201 83 q 293 61 254 51 q 383 182 347 76 q 432 442 415 276 q 442 593 439 515 q 446 726 446 676 q 445 853 446 776 q 444 938 444 931 q 453 957 444 949 q 472 965 461 965 q 492 957 483 965 q 500 938 500 949 q 501 853 500 932 q 501 723 501 774 q 497 588 500 672 q 488 436 494 504 q 436 164 472 265 q 307 8 390 29 q 199 21 246 -8 q 132 96 160 43 q 82 271 99 160 q 58 607 61 421 q 61 940 54 793 q 69 960 61 953 q 90 968 78 968 q 109 960 101 968 q 117 940 117 951 m 197 1011 q 289 1096 258 1064 q 308 1104 296 1104 q 328 1097 319 1104 q 336 1077 336 1089 q 328 1057 336 1065 q 233 969 296 1024 q 213 963 225 961 q 194 972 201 964 q 188 992 186 981 q 197 1011 189 1004 z "},"":{"ha":563,"x_min":54,"x_max":501,"o":"m 117 940 q 113 608 110 790 q 138 279 115 426 q 182 121 153 176 q 226 68 201 83 q 293 61 254 51 q 383 182 347 76 q 432 442 415 276 q 442 593 439 515 q 446 726 446 676 q 445 853 446 776 q 444 938 444 931 q 453 957 444 949 q 472 965 461 965 q 492 957 483 965 q 500 938 500 949 q 501 853 500 932 q 501 723 501 774 q 497 588 500 672 q 488 436 494 504 q 436 164 472 265 q 307 8 390 29 q 199 21 246 -8 q 132 96 160 43 q 82 271 99 160 q 58 607 61 421 q 61 940 54 793 q 69 960 61 953 q 90 968 78 968 q 109 960 101 968 q 117 940 117 951 m 142 1032 q 189 1097 144 1035 l 218 1139 l 229 1153 l 233 1157 l 236 1160 q 250 1168 240 1165 q 274 1163 263 1171 q 282 1156 278 1160 q 297 1139 288 1150 l 332 1093 l 368 1044 q 392 1018 386 1022 q 403 999 401 1011 q 397 978 404 988 q 378 968 390 969 q 358 974 367 967 q 325 1010 346 983 l 286 1060 l 258 1099 l 235 1065 l 186 996 q 167 986 178 988 q 147 992 156 985 q 136 1011 138 1000 q 142 1032 135 1022 z "},"":{"ha":563,"x_min":54,"x_max":501,"o":"m 117 940 q 113 608 110 790 q 138 279 115 426 q 182 121 153 176 q 226 68 201 83 q 293 61 254 51 q 383 182 347 76 q 432 442 415 276 q 442 593 439 515 q 446 726 446 676 q 445 853 446 776 q 444 938 444 931 q 453 957 444 949 q 472 965 461 965 q 492 957 483 965 q 500 938 500 949 q 501 853 500 932 q 501 723 501 774 q 497 588 500 672 q 488 436 494 504 q 436 164 472 265 q 307 8 390 29 q 199 21 246 -8 q 132 96 160 43 q 82 271 99 160 q 58 607 61 421 q 61 940 54 793 q 69 960 61 953 q 90 968 78 968 q 109 960 101 968 q 117 940 117 951 m 219 1044 q 224 1040 219 1044 q 228 1025 228 1036 q 219 1006 228 1014 q 200 997 211 997 q 181 1006 189 997 q 172 1025 172 1014 q 181 1044 172 1036 q 200 1053 189 1053 q 219 1044 211 1053 m 364 1051 q 368 1047 364 1051 q 372 1032 372 1043 q 364 1013 372 1021 q 344 1004 356 1004 q 325 1013 333 1004 q 317 1032 317 1021 q 325 1051 317 1043 q 344 1060 333 1060 q 364 1051 356 1060 z "},"":{"ha":576,"x_min":93,"x_max":518,"o":"m 149 960 q 256 704 188 879 q 335 513 310 564 l 461 957 q 474 974 464 968 q 496 976 485 979 q 513 962 507 972 q 514 940 518 951 l 251 22 q 239 6 249 11 q 218 3 229 0 q 201 15 207 6 q 199 36 196 25 l 311 432 q 204 683 275 504 q 99 935 136 857 q 97 956 93 946 q 112 972 101 967 q 133 974 122 978 q 149 960 143 969 m 275 985 q 350 1075 346 1071 q 369 1085 358 1085 q 390 1077 381 1085 q 399 1058 399 1069 q 392 1039 399 1047 q 317 949 389 1035 q 299 939 310 940 q 278 945 288 938 q 268 964 269 953 q 275 985 267 975 z "},"":{"ha":590,"x_min":38,"x_max":538,"o":"m 101 279 q 323 391 226 319 q 457 567 419 463 q 465 665 479 626 q 417 717 454 699 q 327 738 381 736 q 224 728 274 740 q 96 657 168 714 l 96 606 q 101 279 96 569 m 93 951 q 97 726 99 865 q 210 781 156 768 q 330 794 264 797 q 443 767 396 790 q 518 683 499 738 q 510 547 538 626 q 442 428 486 483 q 340 335 397 374 q 225 268 283 296 q 101 222 167 240 q 99 25 103 110 q 90 6 99 14 q 69 -1 81 -1 q 51 8 58 -1 q 43 28 43 17 q 44 317 49 92 q 40 606 40 542 q 38 949 43 872 q 44 968 38 960 q 63 977 51 976 q 83 971 75 978 q 93 951 92 964 z "},"":{"ha":556,"x_min":22,"x_max":510,"o":"m 78 53 q 33 294 44 167 q 38 556 22 421 q 99 793 53 688 q 190 935 138 883 q 363 974 272 1015 q 438 878 431 943 q 411 763 443 828 q 279 585 369 679 l 257 563 q 349 544 301 567 q 451 463 411 517 q 500 350 490 410 q 485 229 510 290 q 403 126 461 168 q 299 78 351 90 q 171 60 247 65 q 151 66 160 58 q 142 85 143 74 q 148 106 140 97 q 168 115 156 114 q 283 131 239 121 q 369 171 328 142 q 443 278 429 213 q 425 403 457 343 q 326 494 393 464 q 236 500 279 515 q 213 491 232 499 q 176 478 193 483 q 144 474 160 474 q 136 475 140 474 q 119 486 125 478 q 117 513 111 499 q 122 522 118 517 q 135 532 126 526 q 141 535 138 533 q 147 539 144 538 l 149 540 q 240 624 204 586 q 361 788 322 710 q 382 871 386 838 q 340 924 379 906 q 229 894 285 949 q 149 771 183 850 q 92 547 107 674 q 89 299 78 421 q 131 67 100 176 q 128 47 135 57 q 112 33 122 36 q 91 35 101 29 q 78 53 81 42 z "},"":{"ha":694,"x_min":74,"x_max":636,"o":"m 217 342 q 492 346 292 346 l 419 643 q 404 708 417 653 q 385 797 394 757 l 368 867 q 356 829 361 847 q 286 590 333 749 q 217 342 256 488 m 78 35 l 151 308 q 233 607 197 488 l 303 843 q 326 918 311 878 q 335 943 331 933 l 339 951 q 340 956 339 954 q 343 960 342 958 l 349 965 q 383 964 367 978 q 401 936 393 956 q 415 901 408 922 q 439 811 426 868 l 460 721 q 472 657 471 667 q 520 463 489 594 q 578 229 551 331 q 632 38 604 128 q 631 16 636 26 q 614 2 625 6 q 592 4 603 -1 q 579 21 582 10 q 506 290 544 133 l 501 290 q 203 286 278 290 q 131 21 154 103 q 117 3 128 10 q 97 1 107 -3 q 80 15 86 4 q 78 35 74 25 m 331 1135 q 349 1117 340 1126 l 360 1107 q 367 1101 361 1106 q 374 1095 372 1096 q 385 1086 375 1094 q 404 1071 394 1078 q 415 1052 414 1064 q 410 1031 417 1040 q 391 1021 403 1022 q 371 1026 379 1019 l 349 1043 q 338 1052 339 1051 q 330 1058 336 1053 q 322 1065 324 1064 l 311 1076 l 292 1096 q 283 1115 283 1103 q 291 1135 283 1126 q 310 1143 299 1143 q 331 1135 322 1143 z "},"":{"ha":694,"x_min":74,"x_max":636,"o":"m 217 342 q 492 346 292 346 l 419 643 q 404 708 417 653 q 385 797 394 757 l 368 867 q 356 829 361 847 q 286 590 333 749 q 217 342 256 488 m 78 35 l 151 308 q 233 607 197 488 l 303 843 q 326 918 311 878 q 335 943 331 933 l 339 951 q 340 956 339 954 q 343 960 342 958 l 349 965 q 383 964 367 978 q 401 936 393 956 q 415 901 408 922 q 439 811 426 868 l 460 721 q 472 657 471 667 q 520 463 489 594 q 578 229 551 331 q 632 38 604 128 q 631 16 636 26 q 614 2 625 6 q 592 4 603 -1 q 579 21 582 10 q 506 290 544 133 l 501 290 q 203 286 278 290 q 131 21 154 103 q 117 3 128 10 q 97 1 107 -3 q 80 15 86 4 q 78 35 74 25 m 307 1060 l 388 1139 q 407 1147 396 1147 q 426 1139 418 1147 q 435 1119 435 1131 q 426 1100 435 1108 l 346 1021 q 326 1013 338 1013 q 307 1021 315 1013 q 299 1040 299 1029 q 307 1060 299 1051 z "},"":{"ha":694,"x_min":74,"x_max":636,"o":"m 217 342 q 492 346 292 346 l 419 643 q 404 708 417 653 q 385 797 394 757 l 368 867 q 356 829 361 847 q 286 590 333 749 q 217 342 256 488 m 78 35 l 151 308 q 233 607 197 488 l 303 843 q 326 918 311 878 q 335 943 331 933 l 339 951 q 340 956 339 954 q 343 960 342 958 l 349 965 q 383 964 367 978 q 401 936 393 956 q 415 901 408 922 q 439 811 426 868 l 460 721 q 472 657 471 667 q 520 463 489 594 q 578 229 551 331 q 632 38 604 128 q 631 16 636 26 q 614 2 625 6 q 592 4 603 -1 q 579 21 582 10 q 506 290 544 133 l 501 290 q 203 286 278 290 q 131 21 154 103 q 117 3 128 10 q 97 1 107 -3 q 80 15 86 4 q 78 35 74 25 m 254 1040 l 288 1090 q 308 1125 306 1119 q 331 1153 321 1143 q 363 1171 346 1168 q 426 1133 394 1176 q 492 1029 444 1108 q 494 1008 497 1019 q 482 992 492 997 q 461 989 472 986 q 444 1001 450 992 q 382 1100 399 1078 q 371 1114 375 1108 q 354 1093 364 1108 q 333 1059 351 1089 q 299 1010 314 1029 q 281 998 293 1000 q 260 1002 269 996 q 249 1020 251 1008 q 254 1040 247 1032 z "},"":{"ha":694,"x_min":74,"x_max":636,"o":"m 217 342 q 492 346 292 346 l 419 643 q 404 708 417 653 q 385 797 394 757 l 368 867 q 356 829 361 847 q 286 590 333 749 q 217 342 256 488 m 426 1074 q 428 1072 426 1072 l 426 1074 m 78 35 l 151 308 q 233 607 197 488 l 303 843 q 326 918 311 878 q 335 943 331 933 l 339 951 q 340 956 339 954 q 343 960 342 958 l 349 965 q 383 964 367 978 q 401 936 393 956 q 415 901 408 922 q 439 811 426 868 l 460 721 q 472 657 471 667 q 520 463 489 594 q 578 229 551 331 q 632 38 604 128 q 631 16 636 26 q 614 2 625 6 q 592 4 603 -1 q 579 21 582 10 q 506 290 544 133 l 501 290 q 203 286 278 290 q 131 21 154 103 q 117 3 128 10 q 97 1 107 -3 q 80 15 86 4 q 78 35 74 25 m 249 1040 q 282 1104 258 1081 q 365 1125 317 1140 q 410 1094 390 1117 q 421 1081 414 1090 q 425 1075 422 1079 q 454 1103 435 1082 q 474 1111 463 1111 q 494 1103 486 1111 q 503 1084 503 1096 q 496 1064 503 1072 q 442 1022 463 1031 q 389 1033 411 1011 q 376 1047 383 1038 q 368 1058 371 1056 q 349 1072 358 1069 q 321 1065 332 1078 q 301 1026 308 1053 q 289 1010 299 1015 q 268 1007 279 1004 q 251 1019 257 1010 q 249 1040 246 1029 z "},"":{"ha":694,"x_min":74,"x_max":636,"o":"m 217 342 q 492 346 292 346 l 419 643 q 404 708 417 653 q 385 797 394 757 l 368 867 q 356 829 361 847 q 286 590 333 749 q 217 342 256 488 m 78 35 l 151 308 q 233 607 197 488 l 303 843 q 326 918 311 878 q 335 943 331 933 l 339 951 q 340 956 339 954 q 343 960 342 958 l 349 965 q 383 964 367 978 q 401 936 393 956 q 415 901 408 922 q 439 811 426 868 l 460 721 q 472 657 471 667 q 520 463 489 594 q 578 229 551 331 q 632 38 604 128 q 631 16 636 26 q 614 2 625 6 q 592 4 603 -1 q 579 21 582 10 q 506 290 544 133 l 501 290 q 203 286 278 290 q 131 21 154 103 q 117 3 128 10 q 97 1 107 -3 q 80 15 86 4 q 78 35 74 25 m 333 1082 q 338 1078 333 1082 q 342 1063 342 1074 q 333 1043 342 1051 q 314 1035 325 1035 q 294 1043 303 1035 q 286 1063 286 1051 q 294 1082 286 1074 q 314 1090 303 1090 q 333 1082 325 1090 m 457 1083 q 461 1079 457 1083 q 465 1064 465 1075 q 457 1044 465 1053 q 438 1036 449 1036 q 418 1044 426 1036 q 410 1064 410 1053 q 418 1083 410 1075 q 438 1092 426 1092 q 457 1083 449 1092 z "},"":{"ha":694,"x_min":74,"x_max":636,"o":"m 217 342 q 492 346 292 346 l 419 643 q 404 708 417 653 q 385 797 394 757 l 368 867 q 356 829 361 847 q 286 590 333 749 q 217 342 256 488 m 432 1019 q 421 1007 428 1013 q 331 989 374 983 q 264 1025 289 994 q 251 1099 238 1058 q 314 1165 264 1139 q 409 1177 367 1190 q 471 1125 451 1164 q 465 1047 490 1083 q 432 1019 453 1031 m 78 35 l 151 308 q 233 607 197 488 l 303 843 q 326 918 311 878 q 335 943 331 933 l 339 951 q 340 956 339 954 q 343 960 342 958 l 349 965 q 383 964 367 978 q 401 936 393 956 q 415 901 408 922 q 439 811 426 868 l 460 721 q 472 657 471 667 q 520 463 489 594 q 578 229 551 331 q 632 38 604 128 q 631 16 636 26 q 614 2 625 6 q 592 4 603 -1 q 579 21 582 10 q 506 290 544 133 l 501 290 q 203 286 278 290 q 131 21 154 103 q 117 3 128 10 q 97 1 107 -3 q 80 15 86 4 q 78 35 74 25 m 372 1061 q 419 1079 408 1064 q 419 1101 426 1089 q 393 1124 413 1118 q 339 1115 374 1131 q 304 1082 310 1100 q 308 1060 300 1069 q 349 1043 321 1043 q 372 1061 356 1060 z "},"":{"ha":869,"x_min":42,"x_max":807,"o":"m 207 432 q 433 440 304 439 l 361 732 l 358 747 l 349 786 l 338 832 l 329 858 q 321 831 325 843 l 253 592 l 207 432 m 364 961 q 436 962 388 961 q 514 963 485 963 q 584 961 543 963 q 660 957 625 960 q 678 947 671 956 q 685 927 686 939 q 675 908 683 915 q 654 901 667 900 q 375 906 597 906 q 390 844 382 881 l 403 800 q 411 761 408 775 l 414 746 q 490 440 439 656 l 599 440 l 692 440 q 711 432 703 440 q 719 413 719 424 q 711 393 719 401 q 692 385 703 385 l 600 385 l 504 385 q 590 57 553 183 l 779 57 q 799 49 790 57 q 807 29 807 40 q 799 10 807 18 q 779 1 790 1 l 576 1 q 568 3 572 1 q 543 22 549 4 q 446 385 501 158 q 190 375 299 383 l 97 22 q 85 6 94 11 q 64 3 75 0 q 47 15 53 6 q 44 36 42 25 q 200 608 139 407 l 268 844 q 286 904 272 864 q 288 910 288 907 q 288 921 288 914 q 290 935 289 928 q 299 958 293 950 q 322 974 307 972 q 347 965 336 975 q 353 958 350 963 q 364 961 358 961 z "},"":{"ha":540,"x_min":-8,"x_max":476,"o":"m 347 751 q 314 849 339 804 q 257 913 289 894 q 201 918 228 931 q 132 843 164 903 q 54 572 72 732 q 60 288 36 414 q 134 101 79 158 q 249 51 189 43 q 360 133 310 61 q 419 329 411 206 q 429 349 421 342 q 449 356 438 357 q 469 346 461 354 q 475 326 476 338 q 404 99 465 188 q 257 -3 343 10 q 236 -6 246 -4 q 233 -10 235 -7 q 231 -15 232 -12 q 228 -18 229 -17 l 226 -19 l 225 -21 q 244 -47 229 -29 q 286 -99 279 -86 q 293 -139 297 -119 q 263 -174 288 -161 q 129 -196 226 -192 q 109 -188 118 -196 q 100 -169 100 -181 q 108 -149 100 -158 q 126 -140 115 -140 q 236 -124 213 -137 q 204 -85 233 -118 q 169 -21 171 -47 q 175 4 169 -8 q 67 98 113 26 q 4 279 21 169 q -8 476 -8 376 q 15 681 -8 575 q 82 868 39 788 q 179 969 125 947 q 286 961 232 993 q 360 879 329 935 q 403 760 392 824 q 397 740 404 749 q 379 728 390 731 q 359 733 368 726 q 347 751 350 740 z "},"":{"ha":514,"x_min":28,"x_max":449,"o":"m 57 972 q 238 970 117 971 q 422 967 360 969 q 441 958 433 967 q 449 938 449 950 q 440 919 449 926 q 419 911 432 911 q 245 915 358 914 q 83 915 132 915 l 83 531 q 240 530 136 529 q 394 529 343 531 q 415 521 407 529 q 422 501 422 513 q 414 481 422 489 q 394 474 406 474 q 238 474 342 475 q 83 475 135 474 l 83 53 q 408 50 207 50 q 428 42 419 50 q 436 22 436 33 q 428 3 436 11 q 408 -6 419 -6 q 56 -1 190 -6 q 38 6 46 -1 q 29 22 31 13 q 28 32 28 26 l 28 943 l 28 944 l 28 946 q 36 965 28 957 q 56 972 44 972 l 57 972 m 136 1126 q 225 1071 181 1089 q 240 1055 235 1065 q 240 1034 244 1044 q 224 1019 235 1024 q 203 1018 214 1014 q 100 1085 150 1040 q 90 1103 92 1092 q 97 1124 89 1115 q 116 1133 104 1132 q 136 1126 128 1135 z "},"":{"ha":514,"x_min":28,"x_max":449,"o":"m 57 972 q 238 970 117 971 q 422 967 360 969 q 441 958 433 967 q 449 938 449 950 q 440 919 449 926 q 419 911 432 911 q 245 915 358 914 q 83 915 132 915 l 83 531 q 240 530 136 529 q 394 529 343 531 q 415 521 407 529 q 422 501 422 513 q 414 481 422 489 q 394 474 406 474 q 238 474 342 475 q 83 475 135 474 l 83 53 q 408 50 207 50 q 428 42 419 50 q 436 22 436 33 q 428 3 436 11 q 408 -6 419 -6 q 56 -1 190 -6 q 38 6 46 -1 q 29 22 31 13 q 28 32 28 26 l 28 943 l 28 944 l 28 946 q 36 965 28 957 q 56 972 44 972 l 57 972 m 125 1049 q 243 1153 208 1125 q 263 1158 251 1160 q 282 1148 275 1157 q 288 1127 289 1139 q 276 1108 286 1115 q 164 1007 244 1083 q 144 1000 156 1000 q 124 1008 132 1000 q 117 1028 117 1017 q 125 1049 117 1040 z "},"":{"ha":514,"x_min":28,"x_max":449,"o":"m 57 972 q 238 970 117 971 q 422 967 360 969 q 441 958 433 967 q 449 938 449 950 q 440 919 449 926 q 419 911 432 911 q 245 915 358 914 q 83 915 132 915 l 83 531 q 240 530 136 529 q 394 529 343 531 q 415 521 407 529 q 422 501 422 513 q 414 481 422 489 q 394 474 406 474 q 238 474 342 475 q 83 475 135 474 l 83 53 q 408 50 207 50 q 428 42 419 50 q 436 22 436 33 q 428 3 436 11 q 408 -6 419 -6 q 56 -1 190 -6 q 38 6 46 -1 q 29 22 31 13 q 28 32 28 26 l 28 943 l 28 944 l 28 946 q 36 965 28 957 q 56 972 44 972 l 57 972 m 115 1053 l 150 1106 q 176 1146 169 1136 q 197 1172 188 1164 q 231 1188 213 1188 q 263 1171 247 1186 q 282 1147 271 1164 q 339 1068 325 1086 q 344 1048 346 1060 q 334 1029 343 1036 q 313 1024 325 1022 q 294 1035 301 1025 q 236 1115 281 1053 q 229 1125 232 1121 q 222 1115 226 1121 q 196 1075 215 1106 l 163 1022 q 144 1010 156 1013 q 124 1015 133 1008 q 112 1032 114 1021 q 115 1053 110 1043 z "},"":{"ha":514,"x_min":28,"x_max":449,"o":"m 57 972 q 238 970 117 971 q 422 967 360 969 q 441 958 433 967 q 449 938 449 950 q 440 919 449 926 q 419 911 432 911 q 245 915 358 914 q 83 915 132 915 l 83 531 q 240 530 136 529 q 394 529 343 531 q 415 521 407 529 q 422 501 422 513 q 414 481 422 489 q 394 474 406 474 q 238 474 342 475 q 83 475 135 474 l 83 53 q 408 50 207 50 q 428 42 419 50 q 436 22 436 33 q 428 3 436 11 q 408 -6 419 -6 q 56 -1 190 -6 q 38 6 46 -1 q 29 22 31 13 q 28 32 28 26 l 28 943 l 28 944 l 28 946 q 36 965 28 957 q 56 972 44 972 l 57 972 m 183 1106 q 188 1101 183 1106 q 192 1086 192 1097 q 183 1067 192 1075 q 164 1058 175 1058 q 144 1067 153 1058 q 136 1086 136 1075 q 144 1106 136 1097 q 164 1114 153 1114 q 183 1106 175 1114 m 311 1099 q 315 1094 311 1099 q 319 1079 319 1090 q 311 1060 319 1068 q 292 1051 303 1051 q 272 1060 281 1051 q 264 1079 264 1068 q 272 1099 264 1090 q 292 1107 281 1107 q 311 1099 303 1107 z "},"":{"ha":264,"x_min":24,"x_max":203,"o":"m 115 946 l 115 25 q 107 6 115 14 q 88 -3 99 -3 q 68 6 76 -3 q 60 25 60 14 l 60 946 q 68 965 60 957 q 88 974 76 974 q 107 965 99 974 q 115 946 115 957 m 68 1121 q 185 1058 78 1114 q 199 1042 196 1053 q 197 1020 203 1031 q 181 1006 192 1010 q 160 1008 169 1003 l 38 1074 q 26 1090 28 1079 q 29 1112 24 1101 q 46 1124 35 1122 q 68 1121 57 1126 z "},"":{"ha":249,"x_min":35,"x_max":186,"o":"m 115 946 l 115 25 q 107 6 115 14 q 88 -3 99 -3 q 68 6 76 -3 q 60 25 60 14 l 60 946 q 68 965 60 957 q 88 974 76 974 q 107 965 99 974 q 115 946 115 957 m 46 1074 q 92 1114 53 1079 q 142 1154 119 1140 q 162 1159 150 1161 q 180 1148 174 1157 q 184 1127 186 1139 q 172 1110 182 1115 q 128 1072 154 1096 q 82 1032 89 1038 q 61 1025 72 1024 q 42 1035 50 1026 q 36 1056 35 1044 q 46 1074 38 1067 z "},"":{"ha":271,"x_min":-18,"x_max":208,"o":"m 117 946 l 117 25 q 108 6 117 14 q 89 -3 100 -3 q 69 6 78 -3 q 61 25 61 14 l 61 946 q 69 965 61 957 q 89 974 78 974 q 108 965 100 974 q 117 946 117 957 m -12 1040 q 39 1115 26 1100 q 96 1144 67 1149 q 144 1110 117 1140 q 158 1093 149 1104 l 178 1069 q 200 1047 189 1058 q 208 1027 208 1039 q 200 1008 208 1015 q 180 1000 192 1000 q 161 1008 168 1000 q 139 1033 149 1021 l 118 1056 q 103 1072 108 1068 q 89 1088 93 1083 q 82 1079 86 1085 q 35 1010 72 1067 q 17 998 28 1000 q -4 1002 6 996 q -16 1019 -14 1008 q -12 1040 -18 1031 z "},"":{"ha":246,"x_min":1,"x_max":181,"o":"m 114 946 l 114 25 q 106 6 114 14 q 86 -3 97 -3 q 67 6 75 -3 q 58 25 58 14 l 58 946 q 67 965 58 957 q 86 974 75 974 q 106 965 97 974 q 114 946 114 957 m 49 1090 q 53 1086 49 1090 q 57 1071 57 1082 q 49 1051 57 1060 q 29 1043 40 1043 q 10 1051 18 1043 q 1 1071 1 1060 q 10 1090 1 1082 q 29 1099 18 1099 q 49 1090 40 1099 m 172 1090 q 176 1086 172 1090 q 181 1071 181 1082 q 172 1051 181 1060 q 153 1043 164 1043 q 133 1051 142 1043 q 125 1071 125 1060 q 133 1090 125 1082 q 153 1099 142 1099 q 172 1090 164 1099 z "},"":{"ha":606,"x_min":-62,"x_max":542,"o":"m 81 485 q 76 57 76 199 q 258 108 178 67 q 388 213 339 150 q 461 352 436 276 q 485 508 486 428 q 457 662 483 589 q 381 792 431 735 q 255 881 332 849 q 85 911 178 914 q 82 540 85 772 l 182 540 q 201 532 193 540 q 210 513 210 524 q 201 493 210 501 q 182 485 193 485 l 81 485 m 64 965 q 267 936 175 972 q 417 834 360 900 q 507 684 475 768 q 540 508 539 600 q 513 331 542 417 q 426 172 483 244 q 275 53 369 100 q 61 0 181 7 q 49 -3 56 -3 q 29 6 38 -3 q 21 25 21 14 q 25 485 21 176 l -35 485 q -54 493 -46 485 q -62 513 -62 501 q -54 532 -62 524 q -35 540 -46 540 l 26 540 q 29 938 29 790 q 38 957 29 949 q 57 965 46 965 l 61 965 l 64 965 z "},"":{"ha":593,"x_min":54,"x_max":529,"o":"m 114 706 q 110 26 110 49 q 101 7 110 15 q 82 -1 93 -1 q 63 7 71 -1 q 54 26 54 15 q 57 488 54 181 q 60 947 60 794 q 68 967 60 958 q 88 975 76 975 q 107 967 99 975 q 115 947 115 958 l 115 853 q 236 953 165 922 q 329 969 283 969 q 419 936 375 968 q 492 846 463 904 q 522 682 514 799 q 529 444 529 588 q 524 219 528 369 q 522 24 521 68 q 515 3 522 11 q 495 -6 507 -6 q 475 2 483 -6 q 467 21 467 10 q 469 219 465 67 q 474 446 472 371 q 468 678 474 589 q 442 821 460 785 q 388 890 419 867 q 324 914 356 914 q 258 901 292 914 q 165 826 204 878 q 117 713 125 774 q 114 706 115 710 m 167 1060 q 250 1099 207 1100 q 313 1076 274 1097 q 349 1064 338 1064 q 386 1090 364 1064 q 404 1100 393 1099 q 424 1094 415 1101 q 435 1075 433 1086 q 428 1054 436 1064 q 350 1008 392 1010 q 286 1028 325 1007 q 247 1043 258 1042 q 206 1021 228 1043 q 186 1013 197 1013 q 167 1021 175 1013 q 158 1040 158 1029 q 167 1060 158 1051 z "},"":{"ha":639,"x_min":42,"x_max":596,"o":"m 332 967 q 356 965 343 971 q 495 823 439 919 q 574 615 551 726 q 589 392 596 504 q 500 103 578 211 q 260 7 407 -22 q 88 190 142 32 q 57 506 42 324 q 132 814 71 685 q 310 974 204 963 q 332 967 322 975 m 315 918 q 182 789 240 911 q 113 501 126 671 q 139 208 99 329 q 271 63 182 81 q 454 136 383 39 q 533 394 524 231 q 488 709 543 560 q 328 915 433 858 q 322 919 325 918 q 315 918 319 918 m 244 1128 q 264 1110 254 1118 q 288 1094 274 1103 q 308 1082 303 1085 q 335 1067 314 1079 q 361 1054 356 1056 q 374 1038 371 1049 q 372 1016 378 1026 q 356 1002 367 1006 q 333 1004 344 999 q 313 1017 328 1008 q 290 1028 297 1025 q 270 1040 283 1032 q 248 1053 257 1047 q 228 1069 239 1060 l 206 1086 q 197 1106 197 1094 q 205 1126 197 1117 q 224 1135 213 1135 q 244 1128 235 1135 z "},"":{"ha":639,"x_min":42,"x_max":596,"o":"m 332 967 q 356 965 343 971 q 495 823 439 919 q 574 615 551 726 q 589 392 596 504 q 500 103 578 211 q 260 7 407 -22 q 88 190 142 32 q 57 506 42 324 q 132 814 71 685 q 310 974 204 963 q 332 967 322 975 m 315 918 q 182 789 240 911 q 113 501 126 671 q 139 208 99 329 q 271 63 182 81 q 454 136 383 39 q 533 394 524 231 q 488 709 543 560 q 328 915 433 858 q 322 919 325 918 q 315 918 319 918 m 229 1042 q 342 1132 244 1053 q 363 1138 351 1139 q 381 1127 374 1136 q 388 1107 389 1118 q 378 1088 386 1096 l 260 994 q 239 991 250 989 q 222 1003 228 993 q 217 1024 215 1013 q 229 1042 219 1035 z "},"":{"ha":639,"x_min":42,"x_max":596,"o":"m 332 967 q 356 965 343 971 q 495 823 439 919 q 574 615 551 726 q 589 392 596 504 q 500 103 578 211 q 260 7 407 -22 q 88 190 142 32 q 57 506 42 324 q 132 814 71 685 q 310 974 204 963 q 332 967 322 975 m 315 918 q 182 789 240 911 q 113 501 126 671 q 139 208 99 329 q 271 63 182 81 q 454 136 383 39 q 533 394 524 231 q 488 709 543 560 q 328 915 433 858 q 322 919 325 918 q 315 918 319 918 m 167 1019 q 224 1114 207 1092 q 285 1154 254 1154 q 349 1117 314 1154 q 418 1035 360 1106 q 425 1014 426 1025 q 415 995 424 1003 q 394 989 406 988 q 376 999 383 990 q 308 1079 314 1074 q 294 1092 300 1088 q 288 1099 289 1097 l 285 1099 l 275 1089 q 268 1081 272 1085 q 214 992 254 1061 q 197 979 208 982 q 176 982 186 976 q 164 999 167 988 q 167 1019 161 1010 z "},"":{"ha":639,"x_min":42,"x_max":596,"o":"m 332 967 q 356 965 343 971 q 495 823 439 919 q 574 615 551 726 q 589 392 596 504 q 500 103 578 211 q 260 7 407 -22 q 88 190 142 32 q 57 506 42 324 q 132 814 71 685 q 310 974 204 963 q 332 967 322 975 m 315 918 q 182 789 240 911 q 113 501 126 671 q 139 208 99 329 q 271 63 182 81 q 454 136 383 39 q 533 394 524 231 q 488 709 543 560 q 328 915 433 858 q 322 919 325 918 q 315 918 319 918 m 169 1063 q 267 1121 219 1122 q 338 1086 297 1119 q 372 1064 363 1064 q 424 1100 392 1063 q 442 1110 431 1108 q 463 1103 454 1111 q 472 1084 471 1096 q 465 1064 474 1072 q 369 1008 415 1004 q 301 1044 340 1010 q 265 1065 276 1065 q 211 1026 244 1067 q 192 1017 204 1018 q 172 1023 181 1015 q 163 1042 164 1031 q 169 1063 161 1054 z "},"":{"ha":639,"x_min":42,"x_max":596,"o":"m 332 967 q 356 965 343 971 q 495 823 439 919 q 574 615 551 726 q 589 392 596 504 q 500 103 578 211 q 260 7 407 -22 q 88 190 142 32 q 57 506 42 324 q 132 814 71 685 q 310 974 204 963 q 332 967 322 975 m 315 918 q 182 789 240 911 q 113 501 126 671 q 139 208 99 329 q 271 63 182 81 q 454 136 383 39 q 533 394 524 231 q 488 709 543 560 q 328 915 433 858 q 322 919 325 918 q 315 918 319 918 m 272 1088 q 276 1083 272 1088 q 281 1068 281 1079 q 272 1049 281 1057 q 253 1040 264 1040 q 233 1049 242 1040 q 225 1068 225 1057 q 233 1088 225 1079 q 253 1096 242 1096 q 272 1088 264 1096 m 386 1079 q 390 1075 386 1079 q 394 1060 394 1071 q 386 1040 394 1049 q 367 1032 378 1032 q 347 1040 356 1032 q 339 1060 339 1049 q 347 1079 339 1071 q 367 1088 356 1088 q 386 1079 378 1088 z "},"":{"ha":453,"x_min":32,"x_max":388,"o":"m 58 454 q 360 458 164 458 q 379 450 371 458 q 388 431 388 442 q 379 411 388 419 q 360 403 371 403 q 61 399 164 403 q 41 406 50 399 q 32 425 32 414 q 40 445 32 436 q 58 454 47 454 m 228 601 q 232 597 228 601 q 236 582 236 593 q 228 563 236 571 q 208 554 219 554 q 189 563 197 554 q 181 582 181 571 q 189 601 181 593 q 208 610 197 610 q 228 601 219 610 m 232 304 q 236 300 232 304 q 240 285 240 296 q 232 265 240 274 q 213 257 224 257 q 193 265 201 257 q 185 285 185 274 q 193 304 185 296 q 213 313 201 313 q 232 304 224 313 z "},"":{"ha":639,"x_min":42,"x_max":596,"o":"m 526 558 q 335 391 433 494 q 151 176 236 288 q 271 63 194 78 q 454 136 383 39 q 533 396 524 231 q 526 558 538 476 m 92 175 q 88 190 89 182 q 57 506 42 322 q 132 814 71 685 q 310 974 204 963 q 332 967 322 975 q 356 965 343 971 q 495 823 439 919 q 574 615 551 726 q 589 392 596 504 q 500 103 578 211 q 260 7 407 -22 q 96 167 150 31 q 92 175 93 171 m 315 918 q 182 789 240 911 q 113 501 125 669 q 131 240 100 354 q 515 617 338 504 q 444 799 493 721 q 328 915 396 878 q 322 919 325 918 q 315 918 319 918 z "},"":{"ha":563,"x_min":54,"x_max":501,"o":"m 117 940 q 113 608 110 790 q 138 279 115 426 q 182 121 153 176 q 226 68 201 83 q 293 61 254 51 q 383 182 347 76 q 432 442 415 276 q 442 593 439 515 q 446 726 446 676 q 445 853 446 776 q 444 938 444 931 q 453 957 444 949 q 472 965 461 965 q 492 957 483 965 q 500 938 500 949 q 501 853 500 932 q 501 723 501 774 q 497 588 500 672 q 488 436 494 504 q 436 164 472 265 q 307 8 390 29 q 199 21 246 -8 q 132 96 160 43 q 82 271 99 160 q 58 607 61 421 q 61 940 54 793 q 69 960 61 953 q 90 968 78 968 q 109 960 101 968 q 117 940 117 951 m 236 1090 q 357 1019 299 1050 q 370 1003 367 1014 q 368 981 374 992 q 351 967 363 971 q 329 969 340 964 l 206 1043 q 194 1061 196 1050 q 198 1082 192 1072 q 215 1094 204 1092 q 236 1090 226 1096 z "},"":{"ha":563,"x_min":54,"x_max":501,"o":"m 117 940 q 113 608 110 790 q 138 279 115 426 q 182 121 153 176 q 226 68 201 83 q 293 61 254 51 q 383 182 347 76 q 432 442 415 276 q 442 593 439 515 q 446 726 446 676 q 445 853 446 776 q 444 938 444 931 q 453 957 444 949 q 472 965 461 965 q 492 957 483 965 q 500 938 500 949 q 501 853 500 932 q 501 723 501 774 q 497 588 500 672 q 488 436 494 504 q 436 164 472 265 q 307 8 390 29 q 199 21 246 -8 q 132 96 160 43 q 82 271 99 160 q 58 607 61 421 q 61 940 54 793 q 69 960 61 953 q 90 968 78 968 q 109 960 101 968 q 117 940 117 951 m 197 1011 q 289 1096 258 1064 q 308 1104 296 1104 q 328 1097 319 1104 q 336 1077 336 1089 q 328 1057 336 1065 q 233 969 296 1024 q 213 963 225 961 q 194 972 201 964 q 188 992 186 981 q 197 1011 189 1004 z "},"":{"ha":563,"x_min":54,"x_max":501,"o":"m 117 940 q 113 608 110 790 q 138 279 115 426 q 182 121 153 176 q 226 68 201 83 q 293 61 254 51 q 383 182 347 76 q 432 442 415 276 q 442 593 439 515 q 446 726 446 676 q 445 853 446 776 q 444 938 444 931 q 453 957 444 949 q 472 965 461 965 q 492 957 483 965 q 500 938 500 949 q 501 853 500 932 q 501 723 501 774 q 497 588 500 672 q 488 436 494 504 q 436 164 472 265 q 307 8 390 29 q 199 21 246 -8 q 132 96 160 43 q 82 271 99 160 q 58 607 61 421 q 61 940 54 793 q 69 960 61 953 q 90 968 78 968 q 109 960 101 968 q 117 940 117 951 m 142 1032 q 189 1097 144 1035 l 218 1139 l 229 1153 l 233 1157 l 236 1160 q 250 1168 240 1165 q 274 1163 263 1171 q 282 1156 278 1160 q 297 1139 288 1150 l 332 1093 l 368 1044 q 392 1018 386 1022 q 403 999 401 1011 q 397 978 404 988 q 378 968 390 969 q 358 974 367 967 q 325 1010 346 983 l 286 1060 l 258 1099 l 235 1065 l 186 996 q 167 986 178 988 q 147 992 156 985 q 136 1011 138 1000 q 142 1032 135 1022 z "},"":{"ha":563,"x_min":54,"x_max":501,"o":"m 117 940 q 113 608 110 790 q 138 279 115 426 q 182 121 153 176 q 226 68 201 83 q 293 61 254 51 q 383 182 347 76 q 432 442 415 276 q 442 593 439 515 q 446 726 446 676 q 445 853 446 776 q 444 938 444 931 q 453 957 444 949 q 472 965 461 965 q 492 957 483 965 q 500 938 500 949 q 501 853 500 932 q 501 723 501 774 q 497 588 500 672 q 488 436 494 504 q 436 164 472 265 q 307 8 390 29 q 199 21 246 -8 q 132 96 160 43 q 82 271 99 160 q 58 607 61 421 q 61 940 54 793 q 69 960 61 953 q 90 968 78 968 q 109 960 101 968 q 117 940 117 951 m 219 1044 q 224 1040 219 1044 q 228 1025 228 1036 q 219 1006 228 1014 q 200 997 211 997 q 181 1006 189 997 q 172 1025 172 1014 q 181 1044 172 1036 q 200 1053 189 1053 q 219 1044 211 1053 m 364 1051 q 368 1047 364 1051 q 372 1032 372 1043 q 364 1013 372 1021 q 344 1004 356 1004 q 325 1013 333 1004 q 317 1032 317 1021 q 325 1051 317 1043 q 344 1060 333 1060 q 364 1051 356 1060 z "},"":{"ha":576,"x_min":93,"x_max":518,"o":"m 149 960 q 256 704 188 879 q 335 513 310 564 l 461 957 q 474 974 464 968 q 496 976 485 979 q 513 962 507 972 q 514 940 518 951 l 251 22 q 239 6 249 11 q 218 3 229 0 q 201 15 207 6 q 199 36 196 25 l 311 432 q 204 683 275 504 q 99 935 136 857 q 97 956 93 946 q 112 972 101 967 q 133 974 122 978 q 149 960 143 969 m 275 985 q 350 1075 346 1071 q 369 1085 358 1085 q 390 1077 381 1085 q 399 1058 399 1069 q 392 1039 399 1047 q 317 949 389 1035 q 299 939 310 940 q 278 945 288 938 q 268 964 269 953 q 275 985 267 975 z "},"":{"ha":590,"x_min":38,"x_max":538,"o":"m 101 279 q 323 391 226 319 q 457 567 419 463 q 465 665 479 626 q 417 717 454 699 q 327 738 381 736 q 224 728 274 740 q 96 657 168 714 l 96 606 q 101 279 96 569 m 93 951 q 97 726 99 865 q 210 781 156 768 q 330 794 264 797 q 443 767 396 790 q 518 683 499 738 q 510 547 538 626 q 442 428 486 483 q 340 335 397 374 q 225 268 283 296 q 101 222 167 240 q 99 25 103 110 q 90 6 99 14 q 69 -1 81 -1 q 51 8 58 -1 q 43 28 43 17 q 44 317 49 92 q 40 606 40 542 q 38 949 43 872 q 44 968 38 960 q 63 977 51 976 q 83 971 75 978 q 93 951 92 964 z "},"":{"ha":576,"x_min":93,"x_max":518,"o":"m 149 960 q 256 704 188 879 q 335 513 310 564 l 461 957 q 474 974 464 968 q 496 976 485 979 q 513 962 507 972 q 514 940 518 951 l 251 22 q 239 6 249 11 q 218 3 229 0 q 201 15 207 6 q 199 36 196 25 l 311 432 q 204 683 275 504 q 99 935 136 857 q 97 956 93 946 q 112 972 101 967 q 133 974 122 978 q 149 960 143 969 m 275 985 q 350 1075 346 1071 q 369 1085 358 1085 q 390 1077 381 1085 q 399 1058 399 1069 q 392 1039 399 1047 q 317 949 389 1035 q 299 939 310 940 q 278 945 288 938 q 268 964 269 953 q 275 985 267 975 z "},"":{"ha":994,"x_min":42,"x_max":944,"o":"m 315 918 q 182 789 240 911 q 113 501 126 671 q 139 208 99 329 q 271 63 182 81 q 454 136 383 39 q 533 394 524 231 q 488 709 543 560 q 328 915 433 858 q 322 919 325 918 q 315 918 319 918 m 326 979 q 553 981 357 985 q 781 976 750 976 q 800 968 792 976 q 808 949 808 960 q 800 929 808 938 q 781 921 792 921 q 603 924 728 921 q 410 926 478 926 q 536 740 490 857 q 589 492 582 624 q 854 494 657 494 q 874 486 865 494 q 882 467 882 478 q 874 447 882 456 q 854 439 865 439 q 590 436 658 439 q 589 392 590 414 q 500 103 578 211 q 454 54 479 75 q 638 50 519 49 q 918 49 863 51 q 937 40 929 49 q 944 19 944 31 q 935 1 944 8 q 915 -7 926 -7 q 639 -6 861 -4 q 358 7 464 -7 q 260 7 313 -3 q 88 190 142 32 q 57 506 42 324 q 132 814 71 685 q 310 974 204 963 l 311 974 q 326 979 318 979 z "},"":{"ha":994,"x_min":42,"x_max":944,"o":"m 315 918 q 182 789 240 911 q 113 501 126 671 q 139 208 99 329 q 271 63 182 81 q 454 136 383 39 q 533 394 524 231 q 488 709 543 560 q 328 915 433 858 q 322 919 325 918 q 315 918 319 918 m 326 979 q 553 981 357 985 q 781 976 750 976 q 800 968 792 976 q 808 949 808 960 q 800 929 808 938 q 781 921 792 921 q 603 924 728 921 q 410 926 478 926 q 536 740 490 857 q 589 492 582 624 q 854 494 657 494 q 874 486 865 494 q 882 467 882 478 q 874 447 882 456 q 854 439 865 439 q 590 436 658 439 q 589 392 590 414 q 500 103 578 211 q 454 54 479 75 q 638 50 519 49 q 918 49 863 51 q 937 40 929 49 q 944 19 944 31 q 935 1 944 8 q 915 -7 926 -7 q 639 -6 861 -4 q 358 7 464 -7 q 260 7 313 -3 q 88 190 142 32 q 57 506 42 324 q 132 814 71 685 q 310 974 204 963 l 311 974 q 326 979 318 979 z "},"":{"ha":292,"x_min":22,"x_max":232,"o":"m 213 1000 q 78 817 117 958 q 65 800 75 806 q 44 797 56 794 q 28 810 33 800 q 25 831 22 819 q 190 1050 69 1000 q 212 1051 201 1056 q 227 1035 222 1046 q 227 1015 232 1025 q 213 1000 222 1004 z "},"":{"ha":286,"x_min":26,"x_max":239,"o":"m 238 1007 q 82 767 226 875 q 43 772 60 750 q 49 811 26 794 q 182 1013 172 904 q 192 1031 183 1024 q 212 1038 200 1039 q 231 1028 224 1036 q 238 1007 239 1019 z "},"":{"ha":386,"x_min":46,"x_max":322,"o":"m 210 982 q 133 905 163 958 q 101 792 104 851 q 92 773 101 781 q 72 765 83 765 q 53 774 61 765 q 46 794 46 783 q 85 933 49 867 q 185 1032 122 1000 q 206 1034 194 1038 q 222 1020 217 1031 q 224 999 228 1010 q 210 982 221 988 m 314 951 q 247 861 268 904 q 225 760 225 818 q 217 740 225 749 q 197 732 208 732 q 178 740 186 732 q 169 760 169 749 q 196 884 169 831 q 275 990 222 938 q 294 999 283 999 q 314 990 306 999 q 322 971 322 982 q 314 951 322 960 z "},"":{"ha":372,"x_min":10,"x_max":321,"o":"m 214 1019 q 173 868 217 936 q 51 768 129 800 q 30 767 40 763 q 15 783 19 772 q 15 803 10 793 q 29 818 19 814 q 126 897 92 844 q 158 1017 161 951 q 166 1038 158 1029 q 185 1046 174 1046 q 206 1038 197 1046 q 214 1019 214 1031 m 311 994 q 185 740 321 843 q 165 735 176 733 q 146 745 153 736 q 140 766 139 754 q 151 785 142 778 q 256 992 263 869 q 263 1011 256 1003 q 282 1020 271 1019 q 301 1013 293 1021 q 311 994 310 1006 z "},"":{"ha":924,"x_min":185,"x_max":861,"o":"m 186 90 q 206 149 193 118 q 228 197 219 181 q 258 253 236 214 q 285 297 281 292 q 532 684 404 511 q 814 992 660 857 q 834 999 822 1000 q 853 989 846 997 q 860 969 861 981 q 850 950 858 957 q 576 650 701 819 q 332 269 451 481 q 306 224 328 261 q 277 172 285 186 q 258 130 269 157 q 242 79 246 103 q 229 62 239 68 q 208 58 219 56 q 191 69 197 60 q 186 90 185 79 m 569 172 q 574 168 569 172 q 578 153 578 164 q 569 133 578 142 q 550 125 561 125 q 531 133 539 125 q 522 153 522 142 q 531 172 522 164 q 550 181 539 181 q 569 172 561 181 m 331 829 q 335 825 331 829 q 339 810 339 821 q 331 790 339 799 q 311 782 322 782 q 292 790 300 782 q 283 810 283 799 q 292 829 283 821 q 311 838 300 838 q 331 829 322 838 m 724 174 q 728 169 724 174 q 732 154 732 165 q 724 135 732 143 q 704 126 715 126 q 685 135 693 126 q 676 154 676 143 q 685 174 676 165 q 704 182 693 182 q 724 174 715 182 z "},"":{"ha":674,"x_min":-3,"x_max":610,"o":"m 481 747 q 447 845 472 800 q 390 908 422 890 q 335 914 361 926 q 265 839 297 899 q 186 564 204 725 l 214 564 q 396 569 374 569 q 415 561 407 569 q 424 542 424 553 q 415 522 424 531 q 396 514 407 514 q 217 508 374 514 l 182 508 q 186 333 178 419 q 288 334 218 333 q 396 335 358 335 q 415 326 407 335 q 424 307 424 318 q 415 288 424 296 q 396 279 407 279 q 292 278 360 279 q 193 278 224 278 q 268 95 214 151 q 382 47 322 39 q 494 129 443 57 q 553 325 544 201 q 563 345 554 338 q 583 351 571 353 q 602 342 594 350 q 608 322 610 333 q 538 94 599 183 q 390 -7 476 6 q 231 56 300 -21 q 138 275 160 131 l 138 278 q 24 281 75 278 q 5 290 13 281 q -3 310 -3 299 q 6 328 -3 321 q 26 336 15 336 q 131 333 74 333 q 126 507 122 419 q 32 511 76 508 q 13 521 21 513 q 7 541 6 529 q 17 560 8 553 q 38 567 25 568 q 131 563 81 563 q 215 864 149 739 q 313 965 258 943 q 419 957 365 989 q 494 875 463 931 q 536 756 525 819 q 531 735 538 744 q 513 724 524 726 q 492 729 501 722 q 481 747 483 736 z "},"":{"ha":918,"x_min":29,"x_max":860,"o":"m 49 833 q 149 865 94 853 q 233 881 206 878 q 333 890 260 883 q 353 884 344 892 q 364 865 363 876 q 358 845 365 854 q 339 835 350 836 q 218 822 250 826 q 221 704 219 792 q 226 558 222 617 q 239 443 229 499 q 233 423 240 432 q 215 412 226 414 q 195 417 204 410 q 183 435 186 424 q 171 549 175 492 q 165 700 167 607 q 164 813 164 793 q 71 783 113 801 q 49 783 60 778 q 34 798 39 788 q 34 819 29 808 q 49 833 39 829 m 464 879 l 528 778 q 532 770 528 776 q 540 756 536 764 l 553 736 q 567 714 560 724 l 579 693 l 581 697 l 594 744 q 607 788 604 776 q 638 882 625 850 q 654 917 646 904 q 689 942 669 939 q 726 918 714 944 q 731 906 729 913 q 732 903 732 906 l 733 900 q 792 685 754 839 q 856 478 826 551 q 855 458 860 468 q 840 442 850 447 q 819 442 829 438 q 803 458 808 447 q 739 672 772 535 q 688 858 704 808 q 660 772 676 831 q 648 728 657 761 q 633 681 639 694 q 622 647 628 658 q 617 633 619 639 q 601 618 611 624 q 574 618 589 611 q 564 625 569 621 q 549 642 557 631 l 519 683 q 506 706 514 694 q 494 726 499 718 q 485 742 489 735 l 481 747 l 461 779 q 462 623 461 724 q 463 482 463 522 q 454 463 463 471 q 435 454 446 454 q 415 463 424 454 q 407 482 407 471 q 406 603 407 525 q 406 746 406 682 q 407 868 406 810 q 415 887 407 879 q 436 894 424 894 q 450 890 443 894 q 464 879 458 886 z "},"":{"ha":1389,"x_min":0,"x_max":0,"o":""},"":{"ha":1199,"x_min":-146,"x_max":1133,"o":"m 372 122 q 328 190 361 165 q 249 218 294 215 q 119 172 169 225 q 114 156 117 163 l 158 89 q 222 107 178 96 q 372 122 288 125 m 376 67 q 236 54 294 69 q 189 40 206 46 l 218 -4 q 222 -25 224 -14 q 210 -42 219 -36 q 189 -47 200 -49 q 171 -35 178 -44 l 136 19 q 85 -21 103 3 q 64 -82 67 -44 q 79 -118 61 -112 q 167 -119 118 -129 q 263 -82 215 -110 q 340 -17 310 -54 q 375 58 371 21 q 376 67 376 63 m 461 331 q 429 397 435 371 q 428 400 428 399 q 379 422 397 426 q 356 375 361 418 q 371 275 349 322 q 431 226 393 229 q 453 232 446 225 q 464 254 461 239 q 461 331 471 285 m 939 682 q 914 717 928 703 q 814 732 872 757 q 749 647 768 714 q 740 515 733 590 l 772 467 q 785 532 769 496 q 822 592 799 563 q 865 638 846 622 q 939 682 899 664 m 958 629 q 899 593 926 615 q 867 558 886 583 q 836 508 847 533 q 828 469 825 483 q 849 454 831 460 q 941 483 911 439 q 963 601 971 528 q 958 629 961 615 m 15 881 q 132 719 60 808 l 206 631 q 197 674 201 650 q 271 1038 167 875 q 289 1049 278 1047 q 310 1045 300 1051 q 322 1028 319 1039 q 318 1007 324 1017 q 253 682 225 863 q 263 628 258 647 q 278 583 268 610 q 294 529 288 556 q 297 524 294 528 q 303 511 301 514 q 307 492 307 500 q 297 469 306 478 q 275 461 288 461 q 238 492 249 461 q 233 504 235 499 l 232 506 q 164 594 207 543 l 88 683 q -32 853 14 776 q -35 874 -37 863 q -22 890 -32 885 q -1 893 -12 896 q 15 881 10 890 m -146 200 q -117 285 -146 236 q -50 367 -89 331 q 38 417 -6 407 q 131 386 94 429 q 146 326 147 367 q 139 260 146 299 l 139 253 q 254 274 193 279 q 317 258 288 271 q 300 382 292 318 q 367 476 310 464 q 504 400 428 490 q 507 368 518 385 q 513 354 510 360 l 524 338 l 529 331 q 522 358 528 342 q 508 397 519 365 q 503 414 504 408 q 501 424 501 419 q 510 447 500 438 q 542 454 524 461 q 556 447 549 451 q 575 429 563 442 q 619 386 607 397 q 656 368 643 368 q 676 394 667 369 q 676 458 685 417 q 654 528 669 493 q 608 601 647 540 l 600 614 q 597 621 599 618 q 596 625 596 624 q 594 632 594 629 q 600 650 594 642 q 625 660 610 663 q 636 657 631 660 q 642 653 639 656 q 653 640 644 650 l 672 614 l 685 597 q 696 663 688 632 q 792 785 721 756 q 953 756 885 822 q 992 700 976 733 q 1106 713 1043 713 q 1125 704 1117 713 q 1133 685 1133 696 q 1125 665 1133 674 q 1106 657 1117 657 q 1011 647 1054 657 q 1018 608 1017 628 q 988 453 1029 514 q 835 401 935 376 q 806 413 818 406 l 843 354 q 889 275 874 306 q 901 243 899 256 q 899 218 904 229 q 861 204 886 196 q 746 310 794 224 q 722 360 733 333 q 658 313 699 315 q 586 343 625 311 l 583 344 q 586 321 586 332 q 572 263 589 285 q 532 254 557 244 q 521 260 526 256 q 518 240 521 250 q 490 190 510 208 q 428 171 465 168 q 413 172 419 171 q 431 53 439 121 q 385 -50 424 -3 q 290 -131 347 -97 q 178 -174 236 -162 q 63 -171 119 -185 q 8 -76 1 -153 q 40 13 13 -24 q 106 67 64 44 l 88 93 q 76 75 82 81 q 64 67 71 69 q 44 68 54 64 q 29 81 35 72 q 26 96 26 88 l 26 103 q 43 160 32 133 l -28 261 q -33 282 -35 271 q -22 300 -31 293 q -1 305 -12 307 q 17 294 10 303 l 74 215 q 85 269 81 243 q 90 328 90 304 l 89 350 q 50 363 74 368 q -12 325 21 356 q -69 257 -46 296 q -90 200 -90 221 q -99 181 -90 189 q -118 172 -107 172 q -137 181 -129 172 q -146 200 -146 189 m 433 704 q 438 700 433 704 q 442 685 442 696 q 433 665 442 674 q 414 657 425 657 q 394 665 403 657 q 386 685 386 674 q 394 704 386 696 q 414 713 403 713 q 433 704 425 713 z "}}}
